<?xml version="1.0" encoding="UTF-8"?>
<svg id="Camada_2" data-name="Camada 2" xmlns="http://www.w3.org/2000/svg" viewBox="0 0 1073.35 1073.86">
  <g id="Camada_1-2" data-name="Camada 1">
    <g>
      <path d="M49.21,470.76l-4.09,49.25,42.27,3.51-.73,8.81L0,525.13l.73-8.81,35.95,2.98,4.09-49.25-35.95-2.98,.73-8.8,86.66,7.2-.73,8.8-42.27-3.51Z"/>
      <path d="M46.65,436.32l9.98-40.47,8.22,2.03-10.16,40.43,33.12,8.17,11.87-48.13,8.22,2.03-13.98,56.66-84.4-20.82,13.98-56.67,8.22,2.03-11.87,48.13,26.79,6.61Z"/>
      <path d="M53.11,303.3l36.98,46.43,32.57,13.29-3.33,8.16-32.57-13.29-58.89,7.29,3.82-9.37,47.21-5.89-29.63-37.21,3.83-9.4Z"/>
      <path d="M115.5,320.49l-56.76-26.29,4.9-9.42,54.1,31.4-2.24,4.3Zm20.16,14.25l-10.48-5.45,5.31-10.21,10.48,5.45-5.31,10.21Z"/>
      <path d="M138.41,191.88l54.69,53.9-6.23,6.32-61.93-61.03,9.9-10.05,73.31,31.74-32.93-72.71,9.99-10.14,61.93,61.03-6.24,6.33-54.69-53.9,33.61,75.3-5.61,5.69-75.81-32.47Z"/>
      <path d="M253,80.74l6.46,59.01,20.43,28.63-7.17,5.12-20.43-28.63-53.68-25.3,8.24-5.88,43.06,20.24-5.17-47.29,8.26-5.9Z"/>
      <path d="M319.47,56.92l27.99,71.52-8.21,3.21-31.68-80.97,10.81-4.23,77.06,52.27-27.97-71.48,8.21-3.21,31.68,80.97-10.63,4.16-77.26-52.25Z"/>
      <path d="M422.88,76l-3.69,26.28-9.1,1.86,14.48-91.69,9.63-1.96,49.22,78.7-9.22,1.88-13.73-22.72-37.59,7.66Zm1.34-8.9l31.6-6.44-24.8-41.19-6.81,47.63Z"/>
      <path d="M493.38,11.51l1.35,76.78-8.88,.16-1.53-86.94,14.1-.25,30.15,73.98L555.95,.25l14.23-.25,1.53,86.94-8.88,.16-1.34-76.78-28.69,77.31-7.99,.14-31.43-76.25Z"/>
      <path d="M596.68,39.88l41.15,6.62-1.35,8.36-41.12-6.8-5.42,33.68,48.94,7.87-1.34,8.36-57.62-9.27,13.81-85.83,57.62,9.27-1.35,8.36-48.94-7.87-4.38,27.24Z"/>
      <path d="M683.89,112.22l29.29-81.87,8.34,2.98-29.29,81.87-8.34-2.98Z"/>
      <path d="M765.93,121.59c-4.81,10.25-18.17,19.85-39.4,9.89-18.9-8.87-22.21-26.86-16.81-38.38l7.97,3.74c-3.9,8.31-.08,20.75,13.38,27.06,14.42,6.76,23.5,1.29,27.37-6.96,10.41-22.2-44.83-26.91-29.76-59.03,5.43-11.57,19.12-16.36,35.85-8.51,15.68,7.36,20.86,21.58,14.52,35.11l-7.98-3.74c4.07-8.67,.59-18.25-10.29-23.36-10.7-5.02-20.22-4.01-24.25,4.57-10.94,23.33,44.31,27.85,29.41,59.6Z"/>
      <path d="M806.65,141.99l6.33,4.88c-8.94,11.58-12.48,17.04,.39,26.98,12.34,9.53,17.26,4.47,29.63-11.55l32.13-41.62,6.98,5.39-31.98,41.43c-16.17,20.95-24.15,27.22-42.11,13.36-17.43-13.46-13.55-23.09-1.37-38.87Z"/>
      <path d="M921.75,226.72c-24.15,22.98-47.32,15.87-60.95,1.54-17.13-18-15.34-41.87,4.55-60.8,10.14-9.65,21.49-14.67,32.8-14.5,10.35,.15,20.35,4.75,28.15,12.96,17.13,18,15.66,41.57-4.55,60.81Zm-6.08-6.39c19.61-18.67,15.1-36.93,4.24-48.34s-29.6-16.13-48.49,1.85c-19.48,18.54-15.1,36.94-4.24,48.34,13.85,14.55,31.63,14.2,48.49-1.85Z"/>
      <path d="M946.33,297.8c-9.38,6.35-25.77,7.76-38.92-11.66-11.7-17.29-5.34-34.45,5.19-41.58l4.94,7.29c-7.61,5.15-10.68,17.79-2.35,30.1,8.93,13.19,19.53,13.13,27.08,8.02,20.3-13.75-24.75-46.06,4.63-65.95,10.58-7.17,24.8-4.28,35.16,11.03,9.71,14.34,6.89,29.22-5.49,37.59l-4.94-7.3c7.94-5.37,9.85-15.38,3.11-25.34-6.63-9.79-15.33-13.8-23.18-8.48-21.34,14.44,23.82,46.6-5.22,66.26Z"/>
      <path d="M978.84,302.07l18.04,37.58-7.63,3.67-17.88-37.65-30.75,14.76,21.46,44.69-7.63,3.66-25.26-52.62,78.37-37.63,25.26,52.62-7.64,3.67-21.46-44.69-24.88,11.94Z"/>
      <path d="M972.76,386.61l-11.11,4c-7.29,2.57-13.43-2.21-14.22-8.98l3.49-1.26c.5,5.17,4.91,7.84,9.41,6.57l-2.58-7.16,11.11-4,3.9,10.83Z"/>
      <path d="M1008.12,495.5c-13.59,2.12-24-5.07-27.1-24.98l-5.25-33.65,85.86-13.4,5.08,32.52c2.34,14.97-7.83,26.23-20.32,28.18-5.61,.87-14.86-.39-19.05-8.21,.1,12.94-9.68,18.04-19.21,19.53Zm-.71-8.71c8.67-1.35,15.4-9.38,13.57-21.11l-4.11-26.32-31.34,4.89,4.15,26.57c1.7,10.88,7.01,17.64,17.73,15.96Zm47.13-53.3l-29.26,4.57c1.06,6.8,2.49,15.95,3.31,21.19,1.86,11.86,6.39,17.69,17.31,15.98,8.67-1.35,13.87-8.26,11.97-20.45l-3.32-21.29Z"/>
      <path d="M1072.39,565.06l-.14,8.82-53.17-.86c-12.24-.2-35.44-4.76-34.96-34.77,.49-29.97,23.82-33.82,36.06-33.62l53.17,.86-.14,8.81-54.86-.89c-15.42-.25-25.14,8.16-25.41,24.95-.27,17.01,9.29,25.56,24.59,25.8l54.86,.89Z"/>
      <path d="M1055.27,634.42l-77.27-13.68,1.53-8.66,77.27,13.68,6.34-35.82,8.34,1.48-14.22,80.3-8.34-1.48,6.34-35.82Z"/>
      <path d="M1012.44,786.06l-35.38-47.66-32.09-14.38,3.6-8.04,32.09,14.38,59.11-5.28-4.14,9.24-47.38,4.28,28.35,38.2-4.15,9.26Z"/>
      <path d="M929.61,836.47c-28.06-18-26.66-42.2-15.98-58.85,13.42-20.92,37.03-24.85,60.15-10.02,11.79,7.56,19.36,17.39,21.88,28.42,2.31,10.09,.21,20.89-5.9,30.43-13.42,20.92-36.66,25.09-60.15,10.02Zm4.76-7.42c22.79,14.62,39.46,5.89,47.97-7.36,8.5-13.26,8.64-32.59-13.32-46.67-22.64-14.52-39.46-5.89-47.97,7.36-10.85,16.91-6.28,34.1,13.32,46.66Z"/>
      <path d="M913.14,919.08l-5.99,6.47-39.03-36.11c-8.99-8.31-23.23-27.18-2.85-49.22,20.35-22,40.3-9.3,49.29-.99l39.03,36.11-5.99,6.47-40.28-37.26c-11.32-10.47-24.17-10.69-35.57,1.64-11.55,12.49-10.13,25.23,1.11,35.63l40.28,37.26Z"/>
      <path d="M759.18,964.8c-9.32-22.97,1.28-40.36,15.85-49.58,21-13.29,44.06-6.88,58.75,16.33,7.49,11.83,10.19,23.94,7.82,35-2.17,10.12-8.64,19.03-18.21,25.08-17.24,10.91-35.71,8.76-50.02-5.4l7.66-4.85c12.7,11.42,26.95,9.57,37.65,2.79,13.3-8.42,21.6-25.88,7.65-47.92-14.38-22.72-33.28-22.02-46.58-13.6-13.85,8.77-18.47,22.03-12.95,37.31l-7.62,4.82Z"/>
      <path d="M738.71,966.02l-1.56-26.49,8.56-3.61,3.86,92.75-9.05,3.82-63.76-67.46,8.67-3.66,17.94,19.57,35.34-14.92Zm.44,8.99l-29.72,12.54,32.43,35.5-2.71-48.04Z"/>
      <path d="M682.9,1042.58l-17.32-74.83,8.59-1.99,19.6,84.71-11.31,2.62-68.66-62.9,17.3,74.78-8.59,1.99-19.6-84.71,11.12-2.57,68.86,62.9Z"/>
      <path d="M476.99,1015.28c5.36-24.2,23.96-32.5,41.19-31.82,24.83,.98,40.18,19.34,39.1,46.79-.55,13.99-5.19,25.49-13.43,33.26-7.53,7.1-17.91,10.76-29.22,10.32-20.39-.8-34.37-13.05-38.12-32.83l9.06,.36c3.97,16.61,16.76,23.17,29.41,23.67,15.73,.62,32.47-9.05,33.5-35.11,1.06-26.87-14.9-37.01-30.64-37.63-16.38-.64-27.72,7.66-31.83,23.37l-9.01-.35Z"/>
      <path d="M459.42,1004.69l13.74-22.71,9.1,1.88-49.41,78.59-9.63-1.99-14.27-91.72,9.21,1.9,3.68,26.29,37.57,7.75Zm-4.73,7.66l-31.59-6.52,6.58,47.62,25.01-41.11Z"/>
      <path d="M395.07,971.98l-46.06-16.93,2.92-7.95,54.31,19.96-29.97,81.57-8.26-3.03,27.05-73.61Z"/>
      <path d="M337.69,948.88l-43.33-23.02,3.97-7.48,51.1,27.14-40.76,76.74-7.77-4.13,36.79-69.26Z"/>
      <path d="M205.38,946.15l52.09-56.44,6.52,6.02-58.98,63.9-10.37-9.57,29.33-74.31-71.6,35.3-10.46-9.66,58.98-63.9,6.53,6.03-52.09,56.43,74.17-36.06,5.87,5.42-29.98,76.84Z"/>
      <path d="M150.3,854.19l-25.15-33.25,6.76-5.11,25.01,33.36,27.21-20.59-29.92-39.54,6.75-5.11,35.22,46.56-69.35,52.46-35.22-46.56,6.76-5.11,29.92,39.54,22.01-16.65Z"/>
      <path d="M43.01,723.73l23.59,54.61-7.78,3.36-28.22-65.34,7.78-3.36,87.87,26.9-23.6-54.65,7.78-3.36,28.22,65.34-7.78,3.36-87.85-26.85Z"/>
      <path d="M58,681.85l-10.44-40.36,8.2-2.12,10.27,40.41,33.03-8.54-12.41-48,8.2-2.12,14.62,56.52-84.18,21.77-14.62-56.52,8.2-2.12,12.41,48,26.72-6.91Z"/>
    </g>
  </g>
</svg>