<?xml version="1.0" encoding="UTF-8"?>
<svg id="Camada_2" data-name="Camada 2" xmlns="http://www.w3.org/2000/svg" viewBox="0 0 1048.64 474.9">
  <g id="Camada_1-2" data-name="Camada 1">
    <g>
      <path d="M411.4,305.92c-14.23,0-24.55,9.87-24.55,23.87s10.33,23.63,24.55,23.63,24.55-9.87,24.55-23.63-10.09-23.87-24.55-23.87Z"/>
      <path d="M560.27,185c.91-11.28-.58-22.05-3.15-33.16-2.04-8.82-5.34-15.71-12.6-20.76-2.37-1.65-4.22-4.33-3.27-6.54,2.67-6.16-2.53-10.97-2.09-16.69,.14-1.88-1.39-4.23-3.69-4.7-4.01-.81-4.88-3.92-6-7.06-1.49-4.2-2.16-8.54-2.61-12.94-.35-3.43-2.61-7.13-5.56-5.46-9.28,5.26-20.22,6.63-28.67,14.13-8.82,7.84-13.75,18.07-20.27,27.35-10.24,14.56-12.63,31.32-13.48,48.48-.19,3.93,4.42,6.55,4.05,10.06-1.06,9.99,5.68,11.56,12.79,13.14,1.13,.9,2.3,.8,3.51,.17,5.13,1.14,11.33-.41,14.94,4.67,2.7,3.8,6.28,6.17,10.08,8.18l-1.03,3.8c-2.44-1.76-4.81-3.32-7.58-2.99-6.17,.04-8.8,3.78-6.74,7.88,2.05,4.08,6.63,6.38,11.25,6.47l-35.3,130.27h52.09l6.19-23.64h58.97l5.97,23.64h52.09l-44.74-164.29h-35.14Zm-38.19-94.73c1.64,8.53,3.49,16.15,13.05,20.1-14.12,.33-19.43-8.34-13.05-20.1Zm-26.33,77.14c-.69,1.49-1.1,3.38-2.26,4.33-2.29,1.88,.42,7.97-5.2,6.6-8.26-2.01-14.4-8.59-13.9-14.03,.49-5.32,.96-10.62,2.6-15.75,.35-1.08,.71-2.75,.17-3.44-5.23-6.67,.25-11.24,3.17-16.15,1.33-2.24,2.83-4.12,2.8-6.96-.01-1.51,.74-3.3,1.72-4.5,7.44-9.09,17.57-14.86,27.32-23.2-.17,13.38,6,19.73,17.19,21.9,2.63,.51,4.28,2.26,5.04,5.21,1.75,6.75,4.09,12.81,10.22,17.64,6.73,5.3,7.91,14.42,8.81,22.43,2.14,18.91-.42,37.04-13.33,53.02l-.13,.02c-6.68-6.85-13.67-12.94-23.73-13.77-2.39-.2-2.02-2.26-1.74-3.86,1.36-7.85,1.79-15.73,1.44-23.69-.24-5.53-.51-11.04-7.33-12.54-6.06-1.34-10.31,1.19-12.88,6.74Zm34.72,123.37l19.74-78.15c.95,.08,2.04,.33,3.26,.54,.53,.09,1.03,.16,1.5,.21l19.56,77.4h-44.06Z"/>
      <path d="M718.16,329.79c0-14-10.09-23.87-24.55-23.87s-24.55,9.87-24.55,23.87,10.33,23.63,24.55,23.63,24.55-9.87,24.55-23.63Z"/>
      <path d="M817.98,74.07c.39,2.13,1.87,3.04,3.48,2.34,2.64-1.14,4.87,.06,7.93,.54,4.47-1.5,8.98-3.93,10.92-9.12,1.36-3.64-2.44-9.43-5.61-8.71-6.08,1.38-12.33,2.59-16.4,8.36-1.72,2.43-.73,4.35-.32,6.59Z"/>
      <path d="M747.9,125.59c-.49-.3-1.84-.21-1.93,.02-2.61,7.06-11.02,6.49-15.09,11.55-2.26,2.81-6.61,5.64-4.98,9.19,1.89,4.1,6.32,.43,9.63,.51,.7,.02,1.41,0,2.12,0,1.44-1.47,2.89-2.95,4.33-4.42,2.97-3.84,6.19-7.56,7.23-12.48,.33-1.57,.36-3.36-1.31-4.36Z"/>
      <path d="M636.49,127.91c3.88-2.04,8-7.11,7.82-12.68-.32-2.12-.5-3.76-.84-5.36-.66-3.1-.51-7.11-5.48-6.34-4.66,.72-7.63,3.63-7.99,8.31-.21,2.8,.3,5.82,.56,8.51,.27,2.74,1.37,9.95,5.92,7.57Z"/>
      <path d="M831.03,285.18c-2.46-.9-4.23-2.36-5.67-4.81-1.72-2.94-5.27-5.27-8.09-2.35-2.43,2.52-6.74,6.04-1.93,10.59,1.68,1.58,3.17,3.44,4.43,5.38,1.86,2.89,4.65,3.49,7.38,2.55,3.42-1.17,5.58-4.09,7.11-7.14,.11-2.55-1.33-3.53-3.24-4.23Z"/>
      <path d="M880.66,125.18c4.19-1.91,8.55-3.67,11.09-8.8-7.66-2.8-13.93-1.2-15.66,3.83-.53,1.54-1.06,3.21,.12,4.65,1.29,1.58,3.03,.96,4.45,.31Z"/>
      <path d="M221.89,146.22c3.76,.29,6.74-1.45,8.24-4.97-.87-5.53-5.8-3.2-8.68-4.35-2.39-.95-5.88,1.24-6.04,4.44-.21,4.01,3.54,4.64,6.48,4.87Z"/>
      <path d="M117.9,238.62c1.97,.03,4.05-.23,4.59-2.39,.69-2.77-1.79-2.71-3.52-3.22-1.29-.38-2.56-.47-3.42-2.01-2.39-4.28-4.27-1.05-5.48,.9-2.51,4.06,.79,6.85,7.83,6.73Z"/>
      <path d="M790.09,43.98c3.53,.17,4.74-2.27,5.82-5.04-.49-2.79-3.24-2.99-4.8-2.99-2.88-.01-5.44,1.71-5.54,5.04-.09,2.99,2.4,2.9,4.53,3Z"/>
      <path d="M795.84,22.8c2.32-.7,3.83-2.3,4.11-4.9,.14-1.33-.45-2.36-1.93-2.25-2.9,.23-3.83,2.35-4.13,4.83-.15,1.21,.14,2.34,1.95,2.32Z"/>
      <path d="M864.34,163.65c.62,.36,2.09-.69,1.73-2.21-1.17-1.51-.57-4.45-3.56-4.47-1.99-.01-3.14,1.21-2.86,3.05,.37,2.44,2.99,2.64,4.68,3.62Z"/>
      <path d="M837.67,6.72c2.33-.27,3.23-2.32,3.4-4.29-.04-1.58-.49-2.88-1.95-2.29-1.6,.64-3.7,1.22-3.72,3.56,0,1.49,.97,3.17,2.27,3.02Z"/>
      <path d="M625.37,114.28c-.71-1.65-1.25-3.84-3.32-4.18-.99-.16-2.04,1.07-1.93,2.48,.17,2.05,1.01,3.55,3.25,3.8,1.2-.27,2.7-.45,2-2.09Z"/>
      <path d="M814.5,41.95c1.35-.29,3.08-1.58,3.47-2.81,.53-1.66-1.6-1.66-2.63-2.17-1.92-.19-3.41,.61-3.51,2.35-.08,1.36,1.39,2.91,2.67,2.63Z"/>
      <path d="M62.58,200.44c-2.96-.34-4.17,1.44-5.94,2.88-1.68,1.37-1.77,3.1-.39,4.18,2.27,1.77,2.28,4.31,3.33,7.22,3.46,3.21,7.75,6,13.24,5.21,3.85-.55,7.11-6.66,4.96-9.1-4.13-4.67-8.19-9.58-15.2-10.38Z"/>
      <path d="M44.01,276.45c-1.61,.27-3.32,.61-4.03,2.34-.77,1.89,.61,3.12,1.86,4.05,3.68,2.76,7.32,5.74,13.04,5.52-1.21-8.07-5.63-12.8-10.87-11.91Z"/>
      <path d="M76.89,167.11c2.21-1.77,1.07-4.28,.33-5.65-1.37-2.54-4.1-3.95-7.08-2.44-2.67,1.35-1.39,3.49-.46,5.41,1.54,3.18,4.26,3.07,7.21,2.69Z"/>
      <path d="M97.29,160.58c1.23-.51,1.86-1.53,1.05-2.77-1.59-2.44-3.9-2.23-6.22-1.31-1.13,.45-1.99,1.25-1.1,2.82,1.73,1.7,3.85,2.26,6.27,1.26Z"/>
      <path d="M1.19,281.11c-1.96,1.49-.89,3.89-.93,5.85-.02,.72,1.61,1.51,2.77,.46,.77-1.75,3.63-2.64,2.22-5.26-.95-1.76-2.57-2.17-4.05-1.05Z"/>
      <path d="M130.58,189.25c1.36-.8,2.29-1.81,1.08-2.81-1.33-1.09-2.85-2.66-4.91-1.56-1.31,.71-2.31,2.37-1.56,3.44,1.36,1.92,3.59,1.73,5.39,.93Z"/>
      <path d="M87.94,183.23c-.76-1.77-2.17-2.7-3.74-1.95-1.23,.59-1.89,2.62-1.03,3.6,.9,1.04,2.86,1.94,4.13,1.7,1.71-.33,.69-2.2,.64-3.35Z"/>
      <path d="M310.29,112.89c2.53,.63,2.68-1.53,2.72-3.43,.02-.89,.26-1.78,.4-2.66l-3.51-.17c-.16,.64-.2,1.35-.51,1.9-.99,1.77-1.58,3.74,.9,4.36Z"/>
      <path d="M627.12,133.63c.74-.15,1.41-.57,1.4-1.73-.01-1.61-.76-2.78-2.3-3.06-1.43-.26-2.06,.75-2.05,2.1,.01,1.74,1.12,2.43,2.94,2.69Z"/>
      <path d="M685.12,172.56c1.23-7.69,6.27-12.33,12.07-16.51,2.08-1.5,4.9-2.34,6.37-4.26,11.56-15.13,27.24-25.42,42.14-36.65,2.78-2.1,5.27-4.48,6.3-8.24,.64-2.36,2.36-4.58,4.05-6.47,5.79-6.49,4.59-23.39-2.22-28.8-1.85-1.47-4.04-3.47-6.24-2.59-5.94,2.38-12.84-.32-18.49,4.9-5.07,4.68-11.92,2.83-15.34-3.19-2.07-3.64-6.06-2.95-8.44-5.58-1.33,.75-2.26,1.42-3.3,1.85-4.97,2.05-6.73,6.93-9.29,10.92-4.33,6.74-12.26,9.23-16.95,15.62-11.78,16.03-24.52,31.31-38.25,45.72-2.52,2.65-3.54,4.96-2.41,8.74,2.41,8.08,1.03,16.4,.73,24.65-.18,4.99-.07,10.11,.84,15,1.52,8.22,5.14,15.97,4.9,24.64-.07,2.42,.06,6.36,3.01,7.28,3.1,.97,5.99-.63,8.56-3.21,3.67-3.68,7.46-7.29,10.13-11.67,3.62-5.95,7.15-11.69,11.93-17,3.85-4.28,8.89-8.78,9.91-15.13Zm46.67-52.68c-.47,.46-.85,.99-1.26,1.6-.81,1.21-1.64,2.4-2.79,3.29-1.9,1.48-4.26,1.99-6.53,2.69-5.2,4.43-10.41,8.93-16.66,12.6,1.7-8.07,6.74-12.06,13.06-14.57,1.3-.58,2.67-.99,4.04-1.4,.07-.02,.15-.04,.22-.06,1.76-1.02,3.53-2.03,5.29-3.05,1.27-1.63,2.16-3.61,4.2-4.59,.6-.29,1.29-.24,1.78,.17,1.98,1.48,.24,2.57-1.34,3.31Zm4.77-3.95c-.15-1.26-.26-1.53-.18-1.7,1.58-3.58,4.87-5.01,8.18-6.35,.13-.05,1.15,1.36,1.02,1.53-2.2,2.95-5.12,4.92-9.02,6.52Zm-82.61,88.98c-1.89,2.93-1.47,7.6-6.99,7.8,1.48-11.42-5.45-21.17-5.9-32.53-.42-10.58,2.61-19.89,5.57-29.48,.11,.1,.22,.19,.32,.3,.26-1.5,.63-2.99,1.08-4.46,0-.08-.03-.16-.04-.24,5.64-18.04,16.96-31.54,30.92-43.77,7.89-6.91,14.28-15.54,21.27-23.46,1.46-1.66,3.17-2.64,5.96-3.36-.63,13.14,10.82,15.91,21.38,12.19,5.69-2.01,11.65-3.86,16.37-7.87,5.15-4.38,6.97,.97,9.31,3.3,2.43,2.42,2.55,5.95,.03,8.67-11.09,12.01-23.33,22.57-38.74,28.7-6.15,2.45-10.07,6.11-13.07,12.43-4.26,8.98-11.55,16.26-16.82,24.85-9.76,15.92-20.51,31.23-30.64,46.92Z"/>
      <path d="M420.45,185.77c1.72-.12,3.05-1.43,2.86-3.41-.22-2.35-2.17-1.84-3.74-2.16-11.69-2.33-21.74-7.14-27.26-18.57-1.07-2.21-3.02-3.13-5.06-4.41-7.77-4.88-16.28-4.28-24.66-3.96-10.32,.4-20.59,1.86-28.76-6.92-1.55-1.66-4.57-2.65-6.94-2.7-3.57-.07-5.94-1.67-8.73-3.58-14.49-9.91-18.85-8.7-28.26,7.05-.72,1.21-2.38,2.23-2.43,3.39-.23,5.23-8.86,5.28-7.06,11.21,1.98,6.52-.69,15.14,8.03,18.84,.55,.23,1.13,1.05,1.21,1.66,.12,.97,.33,1.89,.57,2.78h-13.49l-22.26,135.61-22.95-135.61h-80.54v99.74c-3.29-1.64-6.49-3.62-9.58-6.1-9.32-7.47-21.92-9.9-32.09-16.56-2.3-1.51-5.04-2.86-7.7-3.16-3.39-.38-8.35-2.25-9.77,2.42-5.48,18.03-5.69,36.53-3.01,55.04,1.59,11.01,2.29,22.32,12.08,30.51,3.01,2.52,4.25,7.7,3.73,12.33-.48,4.23,1.38,7.5,3.35,11.07,2.78,5.04,7.68,8.63,9.29,14.41,2.41,8.66,14.52,17.73,25.24,17.96,3.51-.72,8.49-2.04,13.55-2.71,6.61-.87,11.04-4.86,14.9-9.65,8.9-11.05,13.54-25.12,25.66-34.01,9.58-7.02,15.31-17.51,22.3-26.94l3.63,19.94h62.18l26.85-137.22v137.22h46.35V204.03c9.37,.7,18.78-1.28,27.82,1.96,2.77,.06,4.95-.91,7.14-2.62,8.61-6.73,15.15-16.71,27.54-17.6Zm-208.94,139.77c-7.73,15.39-18.81,27.89-36.41,31.79-4.71,1.04-9.31-3.39-12.33-7.6-2.57-3.59-4.97-7.4-6.82-11.4-1.61-3.49-1.06-6.73,3.91-6.63,4.1,.08,7.76-1.38,11.56-2.54,3.45-1.05,5.61-3.06,4.88-6.51-.67-3.19-3.31-5.22-6.75-5.06-7.48,.34-14.41,1.92-21.1,6.07-8.31,5.16-14.56,11.4-18.04,20.61-2.86,7.59-1.27,13.68,4.32,17.24,4.25,2.7,5.07,.59,5.15-2.87,.14-5.85,1.03-11.47,3.67-17.75,7.78,9.46,11.9,20.38,21.59,26.83,.55,.36,1.34,1.29,1.2,1.6-2.7,6.15-4.22,13.58-8.71,17.94-3.8,3.7-10.99,3.29-16.07-1.29-4.22-3.79-10.46,.04-14.9-4.49-7.5-7.66-16.65-13.69-16.58-26.44,.03-5.48-1.57-11.19-7-15.2-7.57-5.59-5.81-14.5-5.74-22.3,.12-11.76,3.44-22.94,8.75-33.43,4.6-9.1,7.4-10.43,19.72-7.08,6.8,1.85,13.64,5.18,18.11,11.4,2.28,3.18,5.95,3.95,9.17,4.77,11.92,3.05,24.06,5.24,34.87,11.65,3.98,2.36,8.7,1.76,13.08,2.43,11.41,1.74,15.58,8.05,10.45,18.27Zm-13.95-25.32v-88.13l16.75,91.92c-5.16-2.49-10.54-4.33-16.75-3.78Zm196.23-123.68c-9.97-2.48-15.21-10.73-22.73-15.73,10.6,.03,18.31,4.66,22.73,15.73Zm-106.81-10.04c6.17,7.13,19.97,9.38,14.86,25.3-5.56-8.95-11.93-15.95-14.86-25.3Zm92.62,24.61c-9.77,2.36-19.65,5.11-29.59,5.61-7.39,.37-14.73-.09-22.11,1.59-12.47,2.85-18.67-1.59-18.81-14.55-.08-6.93-3.23-10.77-7.87-14.59-2.49-2.04-5.19-3.69-7.12-6.6-5.66-8.56,2.11-13.15,5.12-19.14,2.58-5.13,5.98-4.55,10.75-2.38,8.6,3.91,8.37,11.01,7.56,18.22-.75,6.69,.81,12.73,4.35,18.04,2.3,3.46,4.73,8.26,10.11,7.32,5.41-.94,8.83-4.93,10.96-9.8,1.03-2.34,2.12-5,1.97-7.44-.48-7.51,4.58-7.58,9.27-6.74,4.71,.85,9.39,2.19,13.16,6,8.83,8.93,18.95,15.7,32.63,16.13-6.4,4.79-13.41,6.64-20.35,8.32Z"/>
      <path d="M579.03,79.41c.85,10.68,6.2,19.9,10.26,29.51,.62,1.46,.99,3.37,3.16,3.21,2.2-.16,3-1.85,3.7-3.7,2.63-6.95,4.56-14.33,8.25-20.67,5.12-8.81,12.27-16.34,15.27-26.54,.78-2.65,3.21-5.44,5.67-7.79,3.7-3.53,4.4-7.31,1.41-12.95-5.46-10.28-14.52-16.93-21.81-25.31-5.17-5.94-12.91-8.2-18.35-12.28-9.21,1.2-15.94,6.46-23.88,8.43-.51,.13-.85,1.52-1.01,2.37-2.8,14.44-2.07,28.03,5.06,41.71,4.12,7.91,11.5,14.28,12.27,23.99Zm-1.41-19.04c-3.49-.8-4.16-3.39-5.27-6.98,3.75,1.58,6.26,2.79,5.27,6.98Zm-4.84-47.33c8.94-4.65,12.93-3.62,18.49,4.85,1.55,2.36,2.99,4.71,5.36,6.45,10.59,7.8,12.73,19.42,13.72,31.32,1.82,15.51-6.8,26.35-16.24,36.75-1.73,1.9-8.71-1.47-8.95-4.91-.64-9.01-4.99-17.7-2.03-27.08,.92-2.9,1.31-6.5-2.96-8.31-2.89-1.22-3.16-3.87-1.77-6.58,4.9-9.61,.88-16.43-6.66-22.44-6.88-5.48-6.72-6.02,1.04-10.06Zm-7.29,14.12c2.29-1.06,3.62,1.56,5.13,2.86,4.11,3.52,5.87,7.53,3.2,12.96-1.28,2.62-1.52,5.76-2.23,8.66-1.08-6.74-7.1-11.33-7.94-18.11-.28-2.24-.65-5.21,1.83-6.37Z"/>
      <path d="M398.19,49.94c3.54,2.29,6.01,5.22,7.35,9.06,3.76,10.74,8.69,20.4,19.27,26.3,3.16,1.76,5.36,2.43,8.98,1.32,12.45-3.84,20.4-14.87,32.24-19.57,.74-.29,1.38-1.37,1.65-2.22,2.39-7.37,8.37-11.24,14.65-14.49,5.91-3.06,4.22-6.47,.99-9.92-1.71-1.83-3.95-3.8-6.27-4.32-11.89-2.67-24-4.4-35.44-8.92-1.19-.47-2.79,.23-4.2,.21-13.76-.17-26.78,8.32-40.02,3.45-3.94,.11-7.24-.2-8.93,3.06-1.74,3.37-.49,6.52,1.84,9.04,2.38,2.57,4.95,5.12,7.87,7Zm35.73,30.41c-1.11,.67-2.7,.65-4.01-.32-8.63-6.35-17.03-12.84-18-25.17,12.11,3.92,15.19,23.35,33.46,16.74-3.61,5.02-7.81,6.55-11.45,8.75Zm-30.1-41.71c5.79-.91,12.61-3.27,17.8-2.72,11.45,1.2,23.87-1.02,34.4,6.26,3.87,2.68,9.3,5.28,11.11,8.3,2.33,3.9-1.43,10.14-5.96,12.83-4.29,2.55-8.86,6.35-14.85,3.19-1.67-.88-3.95-.01-6.05,.81-3.51,1.38-6.66-.83-8.65-3.37-7.37-9.36-16.56-16.43-26.58-22.6-.74-.46-1.71-.88-1.21-2.7Z"/>
      <path d="M249.93,137.77c7.6-2.77,15.16-5.84,23-7.76,5.86-1.44,10.53-5.61,10.1-11.37-.11-1.53-.72-2.81-.17-4.59,2.66-8.6,3.64-17.14-.73-25.75-1.14-2.25-1.4-6.4-.06-8.21,5.52-7.5,3.53-17.23,8.18-24.93,1.78-2.96-1.11-4.29-2.65-5.18-2.2-.28-2.55,1.15-3.33,1.59-5.7,3.25-8.7,8.92-12.88,13.54-16.97,18.76-26.75,40.75-30.58,65.6-.45,2.91,.62,4.97,2.65,6.85,2.16,2.01,4.18,1.05,6.49,.2Zm-.5-17.33c1.3-4.21,1.09-8.96,3.7-12.67,5.33-7.57,10.75-15,14.69-23.51,1.6-3.44,5.31-5.9,8.82-9.61-1.9,10.03,2.17,18.7,.93,27.73-.77,5.64,.62,12.31-8.7,11.47-1.8-.16-3.18,1.88-4.03,3.57-2.91,5.75-8.71,4.22-13.42,5.33-.96,.23-2.42-.9-1.99-2.31Zm5.35,8.65c-2.61,1.14-5.07,3.01-9.36,1.92,3.44-2.69,6.1-3.52,9.36-1.92Z"/>
      <path d="M774.81,369.06c-1.08-2.02-3.26-1.45-5.07-1.21-1.13,.15-2.21,.69-3.31,1.05-12.61,4.07-24.81,9.55-38.31,10.54-3.57,.26-6.82,2.21-6.7,6.72,.05,1.86-.76,3.27-2.04,4.29-7.74,6.2-7.86,16.18-11.86,24.21-1.66,3.33-.58,7.11,4.1,7.48,5.64-.64,10.57-2.29,14.4-5.99,3.37-3.25,5.7-7.82,9.47-10.36,13.71-9.26,24.83-21.41,37.19-32.17,1.42-1.24,3.33-2.38,2.16-4.58Zm-32.75,21.55c-2.67,5.56-16.72,14.71-24.25,16.08-1.44-9.34,7.89-12.35,10.35-19.41,1.16-3.33,7.77-.96,11.88-1.65,4.98-.84,2.85,3.24,2.02,4.98Z"/>
      <path d="M502.97,55.23c4.64-2.51,10.14-5.06,15.18-8.33,3.82-2.47,2.08-6.94,2.1-10.52,.01-3.02,4.82-6.52-1.37-9.26-5.62-2.49-10.08-.57-13.44,2.81-4.69,4.72-7.7,10.92-10.26,17.1-1.17,2.82,3.86,8.33,7.79,8.21Zm-3.17-8.47c2.52-3.95,5.72-7.47,8.66-11.15,1.64,1.53,4,2.62,3.43,5.61-.67,5.18-4.7,7-8.93,8.24-1.62,.47-3.85-1.61-3.16-2.7Z"/>
      <path d="M255.01,141.85c-1.31,1.23-2.44,3.11-.68,4.94,2.53,2.64,4.85,5.76,9.22,5.14,7.5,.03,13.37-3.67,13.41-9.28,.04-5.72-5.87-4.51-8.91-5.38-4.68-1.34-9.39,1.15-13.03,4.58Zm5.68,3.79c-.2-.09-.07-1.76,.15-1.82,2.36-.64,4.81-1.94,7.34,.47-2.27,2.48-4.78,2.6-7.49,1.35Z"/>
      <path d="M368.87,128.38c1.63,1.42,3.35,1.22,4.18-.32,1.36-2.53,3.86-2.98,6.55-4.51,2.57-3.96,4.6-8.66,2.89-13.93-1.2-3.7-7.77-5.88-9.81-3.35-3.91,4.86-8.05,9.69-7.66,16.74,.17,2.97,2.13,3.86,3.85,5.36Z"/>
      <path d="M342.48,63.37c1.66-1.66,1.09-3.83,0-5.47-1.01-1.21-2.17-1.95-2.95-.58-.85,1.5-2.14,3.26-.7,5.1,.92,1.17,2.73,1.88,3.65,.96Z"/>
      <path d="M342.47,104.96c.79,1.12,2.9,1.42,3.73,.41,.87-1.06,1.43-3.15,.97-4.36-.61-1.63-2.28-.31-3.41-.07-1.62,1.05-2.29,2.6-1.29,4.02Z"/>
      <path d="M1045.34,238.76c1.61-8.08-2.79-15.35-3.87-23.21-.98-7.08-8.6-11.1-11.15-17.85-4.78,2.39-9.56,4.78-14.35,7.17-1.88,.93-3.76,1.86-5.66,2.75-9.92,4.69-20.38,8.59-28.25,16.61-13.13,13.41-27.81,24.74-43.41,35.17-8.42,5.63-18.58,7.5-26.41,13.78-1.21,.97-2.42,1.92-3.64,2.88,.29-2.91,.45-5.88,.45-8.92,0-49.33-37.63-82.15-94.08-82.15h-24.25c4.45-4.11,8.95-8.16,13.56-12.06,9.83-8.31,14.91-21.28,27.47-26.9,2.07-.92,3.49-5.62-1.85-6.4-9.73-1.41-19.35-4.08-29.27-.16-4.65,1.84-9.6,3.72-14.91,2.96-2.7,.24-4.19,1.66-4.33,4.42-3.17,6.39-9.81,9.12-14.55,13.87-10.65,10.66-19.43,22.62-28.07,35.04-6.65,9.55-15.08,19.07-25.08,26.36-7.57,5.51-13.07,13.22-19.35,20.09-1.22,1.33-2.44,3.36-.32,4.86,1.52,1.08,2.83-.1,4.29-1.18,5.21-3.86,10.16-8.05,16.7-9.96,5.05-1.48,9.91-3.54,14.62-6.4,5.74-3.49,11.36-7.31,17.42-10.32v130.08h67.92c3.02,0,5.98-.11,8.89-.3-6.45,6.82-12.63,13.91-18.48,21.36-9.79,12.48-20.41,24.46-36.98,28.74-4.51,1.16-9.77,2.52-11.27,8.34-.29,1.12,2.72,11.78,3.83,13.59,6.27,10.21,16.42,16.1,25.2,23.66,12.01,10.33,25.32,17.46,39.83,22.91,5.91,2.22,12.53,4.92,18.29,2.48,6.08-2.57,13.32-2.75,18.32-7.91,1.41-1.45,3.68-1.63,5.36-1.11,8.52,2.63,18.09,3.14,24.22,10.97,1.54,1.97,2.88,3.42,5.77,2.66,8.57-2.26,17.08-4.38,25.41-7.77,11.05-4.49,20.21-11.81,29.99-18.05,11.37-7.25,24.1-12.41,33.54-22.98,6.75-7.56,12.4-15.83,18.73-23.63,11.51-14.18,22.71-28.54,30.4-45.35,5.08-11.1,7.68-22.63,9.54-34.65,2.48-16.09,2.97-32.16,3.06-48.35,.07-11.81-2.7-23.29-3.3-35.16Zm-122.91,35.38c18.11-8,34.45-18.84,48.72-32.56,11.8-11.35,23.64-22.5,39.55-28.33-1.49,4.28-4.41,7.11-9.48,8.41-1.92,.49-3.79,1.05-4.87,2.49-8.97,12-21.94,19.61-32.87,29.41-7.31,6.56-16.8,10.91-25.07,16.64-2.52,1.75-4.49,4.03-6.72,6.01-8.9,7.88-19.71,12.74-30.37,17.74-2.24,1.05-4.69,1.66-7.05,2.47-.39-.59-.78-1.18-1.17-1.77,10.29-6.14,18.07-15.54,29.33-20.52Zm-119.17-127.04c.23-.96,3.11-2.99,3.05-2.31-.35,4.09,6.56,.81,5.4,7.03-2.89,15.46-17.6,19.73-25.48,31.14-2.33-5.35-1.76-10.53-4.41-14.8-1.31-2.12,.77-2.35,2.29-3.12,8.11-4.07,16.73-7.64,19.14-17.94Zm-6.82-.02c-1.42,7.45-9.33,12.81-19.97,13.27,7.1-3.79,10.59-12.9,19.97-13.27Zm-66.03,75.96c-5.4,2.45-9.74,7.34-17.05,7.43,4.76-6.74,11.55-10.53,16.18-16.57,4.46-5.82,9.8-11.18,16.46-16.09,.23,1.26,.3,1.71,.39,2.17,2.53,13.13-6.18,18.61-15.98,23.07Zm64.83,89.07v-89.95h19.73c26.39,0,44.29,17.67,44.29,44.97s-17.9,44.97-44.29,44.97h-19.73Zm191.2,104.53c-10.69,7.76-18.64,18.49-31.19,24.59-11.45,5.57-22.56,12.31-33.94,18.31-4.45,2.35-9.15,4.27-13.01,4.92-4.95,.73-4.81-1.61-4.32-4.1,2.35-11.85,8.4-16.94,20.6-20.02,7.69-1.94,15.09-5.95,21.08-11.12,8.66-7.48,19.96-10.41,28.42-17.97,2.44-2.18,5.78-1.08,8.54-2.5,1.99-1.02,3.15,1.41,4.22,2.84,1.28,1.73,1.23,3.86-.4,5.05Zm2.25-8.94c2.27-.91,4.23-1.7,6.57-2.64q-1.76,5.52-6.57,2.64Zm27.48-42.74c4.43-1.69,7.35-5.73,12.31-7.47-2.22,7.41-3.88,8.47-12.31,7.47Zm22.27-49.05c-.58,21.3-9.87,35.72-28.9,44.55-8.13,3.78-16.03,8.06-25.69,12.94,5.92-11.95,7.92-23.11,12.3-34.22-4.18,.78-5.29,2.98-6.24,5.49-5.62,14.82-13.08,28.93-16.8,44.48-.54,2.25-1.21,4.5-1.87,6.69-1.65,5.48-2.61,11.83-8.78,14.41-9.84,4.12-17.07,11.96-25.81,17.66-10.44,6.81-22.15,9.06-33.78,11.98-.89,.22-2.11-.28-2.79,.16-10.86,7.03-24.2,8.07-35.27,14.29-16.5,9.26-32.8,9.74-49.51,1.09-6.72-3.48-12.73-8.02-18.57-12.72-4.04-3.25-9.57-2.69-13.48-6.71-7.58-7.81-9.23-13.79-4.13-23.21,4.27-7.88,9.56-14.91,16.52-20.87,3.88-3.32,6.7-3.29,10.52-1.06,9.89,5.76,20.21,10.37,31.01,14.39,19,7.06,37.69,6.14,56.72,1.43,17.46-4.32,34.05-10.36,47.42-23.13,4.11-3.92,8.36-3.92,11.81,1.08,1.46,2.13,3.72,2.7,5.84,3.6,4.36,1.86,5.64-.47,5.46-4.29-.48-10.19-13.56-26.22-23.25-28.88-4.51-1.24-7.76,1.2-10.95,3.48-2.11,1.5-1.87,3.73,.15,5.37,1.25,1.01,2.86,1.54,4.17,2.49,3.98,2.88,5.95,5.66,.52,9.42-22.03,15.24-45.63,23.92-73.11,21.27-17.52-1.69-33.59-5.69-47.66-16.75-3.8-2.99-3.55-4.83-.44-7.59,14.75-13.07,26.95-28.64,41.23-42.19,4.43-4.21,8.44-8.48,14.3-11.12,6.83-3.08,10.78-10.33,17.44-14.08,3.06-1.73,5.99-3.43,9.38-4.62,12.48-4.41,23.54-11.78,35.6-17.4,1.1,3.53,1.74,7.51,4.82,10.91,4.22,4.66,9.66,5.44,14.09,3.38,9.26-4.31,18.6-9.38,21.74-20.45,2.09-7.38,5.93-14.4,4.93-22.45-.79-6.45,4.19-9.54,7.85-13.2,11.79-11.8,27.05-19.56,38.92-34.64-1.17,6.9,2.04,10.17,3.95,13.99,7.01,14.01,9.22,28.65,9.78,44.49,.61,16.89,1,33.64,.54,50.55Z"/>
    </g>
  </g>
</svg>