<?xml version="1.0" encoding="UTF-8"?>
<svg id="Layer_1" data-name="Layer 1" xmlns="http://www.w3.org/2000/svg" viewBox="0 0 595.28 419.53">
  <defs>
    <style>
      .cls-1 {
        fill: #004691;
      }

      .cls-2 {
        fill: #fcd9c8;
      }

      .cls-3 {
        fill: #fbb800;
      }

      .cls-4 {
        fill: none;
      }
    </style>
  </defs>
  <path class="cls-3" d="M144.14,162.22c0-16.33-6.12-28.96-17.6-36.99-11.35-7.97-19.19-8.62-34.93-8.67v91.2h.77c15.18,0,22.81-.51,34.16-8.55,11.48-8.16,17.6-20.79,17.6-36.99m185.02,45.53h30.87v-21.3h-30.87v21.3Zm197.14-42.67c-4.03-9.07-11.66-14.2-21.29-20.03l-33.6,55.92,.47,.28c9.31,5.59,17.24,9.93,27.16,9.19,10.05-.78,18.46-6.26,24.42-16.2,6.02-10.01,6.91-20.01,2.84-29.17"/>
  <path class="cls-1" d="M223.37,210.18V116.56h-38.56v54.21c0,27.55,9.61,39.41,38.56,39.41m80.92-2.43h24.87V116.55h-24.87v91.2Zm213.52-83.91l-.47-.28c-9.31-5.59-17.24-9.93-27.16-9.19-10.05,.78-18.45,6.26-24.42,16.2-6.01,10.01-6.91,20.01-2.83,29.17,4.02,9.07,11.66,14.2,21.29,20.03l33.6-55.92Z"/>
  <path class="cls-2" d="M66.48,207.76h25.13V116.55h-25.13v91.2Zm195.45-36.99v-54.21h-38.56v93.62c28.96,0,38.56-11.86,38.56-39.41m161.35-54.22h-25.13v91.2h25.13V116.55Z"/>
  <path class="cls-1" d="M457.18,278.39c-.87,2.01-1.29,3.67-.82,4.7,.25,.55,.94,1.05,1.84,1.05,1.49,0,3.23-1.01,4.96-2.65,2.27-2.2,4.35-5.36,5.73-8.72,.55-1.32,.99-2.65,1.3-3.97h-1.65c-1.15,4.61-3.71,8.88-6.5,11.54-1.76,1.7-3.2,2.38-4.19,2.13-.16-.42-.03-1.59,.77-3.45,.65-1.43,1.4-2.73,1.4-2.73,.88-1.71,2.68-4.36,4.97-7.48h0c.94-1.27,1.95-2.62,3.02-4h-2.01c-1.06,1.39-2.06,2.73-2.97,4h0c-2,2.77-3.59,5.14-4.42,6.75-.16,.27-.84,1.47-1.43,2.84m-31.85-17.58c-.28,1.16-.19,2.17,.4,2.94,.47,.62,1.09,.92,1.77,1.06h.05c.37,.07,.74,.09,1.12,.09,.4,0,.82-.04,1.24-.09h-1.27s1.27,0,1.27,0c1.83-.28,3.8-1.09,5.29-1.87,1.13-.59,2.28-1.3,3.43-2.12h-2.9c-.42,.25-.82,.48-1.19,.68-1.35,.71-6.34,2.88-7.55,1.29-.25-.32-.33-.92,0-1.97h-1.65Zm-30.13,4h-4.96c1.22,1.22,3.55,1.17,4.83,.11,.04-.04,.08-.08,.12-.11m-37.17-8.01h1.75l.18-.35c.54-1.06,1.18-2.29,1.87-3.63h-1.7c-.8,1.52-1.53,2.89-2.11,3.99m-1.97,4.01c-.37,1.22-.42,2.66,.28,3.6,.1,.15,.22,.28,.34,.4h0c.66,.62,1.63,.89,2.79,.89,1.47,0,3.01-.35,4.5-.89h-5.37s5.37,0,5.37,0c1.69-.61,3.3-1.45,4.67-2.29,.84-.52,1.7-1.09,2.55-1.71h0c1.24-.89,2.47-1.87,3.59-2.88,.38-.38,.31-.86,.04-1.14h-.93s.93,0,.93,0c-.25-.27-.69-.37-1.1-.07-.02,.02-.05,.04-.08,.07-.91,.82-2.89,2.48-5.31,4.02h0c-2.23,1.41-4.85,2.71-7.38,3.13-2,.33-3.01,.06-3.37-.46-.32-.44-.29-1.18-.07-1.96,.07-.26,.16-.51,.24-.71h0c.14-.36,.28-.62,.31-.68l.11-.21,.39-.76,1.2-2.36h-1.75c-.75,1.42-1.26,2.39-1.39,2.67-.23,.38-.43,.85-.58,1.35h0Zm-14.57,4h-5.12c.76,.32,1.64,.43,2.37,.43,.9,0,1.82-.15,2.75-.43m-11.31,0h-7.01c.93,.56,2.05,.86,3.27,.86s2.41-.29,3.74-.86m-131.5,0h-6.01c.63,.41,1.46,.59,2.41,.59,1.17,0,2.39-.22,3.6-.59m-58.76-4c1.28-.84,2.55-1.8,3.82-2.87,.06-.03,.12-.06,.19-.11,.25-.22,.5-.45,.74-.69l.29-.28s.04-.04,.07-.06h-2.39c-2.04,1.7-3.98,3.02-5.82,4.01h3.11Zm-1.69-8c.46-1.69,.31-3.43-.94-5h0s-.04-.06-.07-.08c-1.19-1.44-3.1-2.16-5.63-2.16-2.68,0-4.95,.63-6.86,1.71l.58-1.05,.45-.81,.12-.23c.26-.38,.14-.94-.28-1.16-.39-.21-.87-.08-1.12,.4l-.17,.29-.6,1.07-1.14,2.02-.95,1.68c-1.31,1.02-2.61,2.13-3.92,3.32h0c-1.25,1.14-2.5,2.36-3.75,3.63-.12,.12-.23,.24-.34,.36h2.24c1.09-1.11,2.25-2.22,3.47-3.31-.61,1.06-1.27,2.17-1.94,3.31h.84s-.84,0-.84,0c-.56,.95-1.13,1.92-1.71,2.9-.23,.38-.45,.75-.67,1.11h1.86l.16-.26c.77-1.28,1.51-2.53,2.22-3.75h0c.82-1.4,1.6-2.75,2.31-3.99,.46-.79,.89-1.55,1.3-2.25,1.68-1.24,2.96-2.17,4.52-2.75h0c1.16-.43,2.47-.66,4.21-.66,1.34,0,2.43,.26,3.23,.65h1.76s-1.76,0-1.76,0c.49,.25,.87,.56,1.12,.89,.94,1.26,1.03,2.68,.6,4.1-.42,1.38-1.34,2.76-2.44,3.98h0c-.42,.46-.87,.9-1.32,1.31-1.17,1.07-2.48,1.98-3.83,2.71h0c-1.5,.81-3.06,1.39-4.58,1.69-1.34,.26-2.96,.38-4.57-.05-.9-.32-2.1-.88-2.95-1.6l.02-.04h-1.86c-.84,1.4-1.65,2.73-2.43,3.99h0c-.88,1.42-1.71,2.75-2.51,4h0c-3.59,5.62-6.37,9.5-8.2,11.39-.26,.26-.75,.73-1.29,1.14-.58,.43-1.08,.69-1.49,.68-.02-.04-.06-.18-.04-.38,.2-1.85,2.56-6.77,6.81-12.82h-1.06s1.06,0,1.06,0c.33-.47,.67-.95,1.02-1.43,.55-.75,1.19-1.61,1.93-2.56h0c.96-1.22,2.07-2.58,3.31-4.01h0c1.14-1.3,2.39-2.66,3.74-4.01h-2.24c-1.23,1.3-2.43,2.64-3.6,4.01h0c-1.1,1.3-2.18,2.63-3.22,3.99h0c-.41,.54-.82,1.08-1.22,1.62-.58,.8-1.13,1.59-1.67,2.38h0c-1.56,2.3-2.93,4.54-4.04,6.59-1.39,2.57-2.26,4.72-2.4,6.05-.16,1.21,.42,2.13,1.67,2.18,1.3,0,3.03-1.37,3.86-2.33,1.59-1.62,3.76-4.56,6.49-8.69,.77-1.17,1.59-2.43,2.44-3.79h0c.8-1.26,1.63-2.59,2.5-4h-.59s.59,0,.59,0c.51-.83,1.03-1.69,1.56-2.57,1,.81,2.19,1.39,3.3,1.72,.75,.3,1.63,.6,2.62,.84h.03c.55,.13,1.13,.24,1.75,.33,.88,.14,1.77,.2,2.65,.2,1.53-.02,3.05-.19,4.58-.53h-3.35s3.35,0,3.35,0c.7-.16,1.4-.35,2.1-.58,2.3-.77,4.6-1.91,6.89-3.42h-3.11c-4.25,2.32-7.92,2.98-10.79,2.94,2.03-.6,4.07-1.61,5.93-2.93h0c.66-.47,1.29-.97,1.89-1.51,.76-.7,1.57-1.56,2.3-2.51h-.79s.79,0,.79,0c.93-1.21,1.71-2.58,2.09-3.98h0Zm14.91-5.01c-.45-.09-.91-.21-1.31-.37,.38-.89,.53-1.65,.31-2.34-.14-.38-.55-1.03-1.53-1.03-.23,0-1.39,.1-1.62,1.44-.17,1.01,.26,1.81,.61,2.3h3.53Zm3.15,5c.86-1.1,1.89-2.58,1.3-3.69-.48-.97-1.82-1.1-2.75-1.1-.39-.02-1.03-.09-1.7-.22h-3.53c.04,.06,.09,.12,.12,.17-1.01,1.64-2.09,3.28-3.32,4.83h0c-.97,1.23-2.03,2.42-3.23,3.53-.18,.16-.37,.31-.55,.46h2.39c1.23-1.23,2.38-2.56,3.45-3.99,.95-1.26,1.83-2.59,2.62-3.96,1.55,.67,3.6,.78,3.77,.78,.23,0,1.19,.05,1.3,.26,0,.28-.18,.55-.33,.77-.39,.56-.88,1.24-1.5,2.03-.03,.04-.07,.09-.1,.13h1.57s-1.57,0-1.57,0c-.97,1.3-1.97,2.61-2.85,3.98h0c-.48,.74-.92,1.49-1.32,2.27-.31,.61-.56,1.2-.75,1.75h1.7c.13-.32,.28-.66,.47-1.03,.53-1.03,1.16-2.02,1.82-2.98h0c.75-1.07,1.54-2.11,2.32-3.15,.17-.23,.41-.52,.65-.84h0Zm27.32-.96c.95-1.61,.85-2.99,.15-4.04h-1.79s1.79,0,1.79,0c-1.09-1.66-3.63-2.53-5.86-2.24-1.96,.26-3.99,1.01-5.98,2.25h2.09s-2.09,0-2.09,0c-1.19,.75-2.37,1.67-3.51,2.77-.44,.44-.9,.85-1.31,1.26-.45-.23-.71-.4-.71-.4-.38-.27-.86-.14-1.13,.22-.18,.36-.14,.81,.3,1.13l.03,.02,.2,.13,.2,.12c-.77,.94-1.55,2.29-2.07,3.74h0c-.35,.98-.59,2-.63,2.99-.58,.36-1.16,.69-1.75,1.02h0c-2.18,1.21-4.32,2.19-6.15,2.83-1.22,.43-2.21,.7-2.94,.7-1.44,0-2.01-.6-1.88-1.86,.04-.47,.18-1.02,.44-1.66h-1.7c-.18,.54-.29,1.04-.33,1.5-.09,.97,.12,1.85,.63,2.5h0c.52,.66,1.34,1.08,2.46,1.12,1.22,.04,2.39-.29,3.84-.79,.3-.1,.6-.21,.91-.33h0c2.04-.78,4.35-1.93,6.64-3.28,.29,1.15,.98,2.14,2.22,2.82,.35,.19,.72,.34,1.11,.46h.01c1.95,.59,4.41,.43,6.63,0h.01c1.51-.29,2.9-.71,3.97-1.1,2.27-.93,4.13-1.83,5.9-2.9h-3.27c-1.05,.54-2.1,1-3.2,1.45-1.91,.77-7.69,2.24-10.36,.72-.86-.47-1.32-1.25-1.49-2.17-.22-1.21,.07-2.67,.61-4.01h0c.48-1.17,1.15-2.25,1.83-2.99l.75,.33c1.52,.64,3.99,1.45,6.94,1.59,2.55,.12,5.87-.75,7.78-2.92h-2.58c-1.44,.87-3.35,1.41-5.16,1.33-2.51-.12-4.62-.76-6.05-1.33h-.01c-.1-.04-.2-.08-.3-.12l-.23-.1,.87-.86c2.29-2.13,4.18-3.27,5.87-3.92h0c.98-.37,1.9-.57,2.79-.7,1.38-.2,2.59,.11,3.4,.7h0c1.04,.76,1.44,1.99,.72,3.2-.4,.68-1.08,1.29-1.92,1.8h2.58c.26-.3,.49-.62,.69-.96m5.1,4.94h-2.48c-2.27,1.82-4.23,3.04-6.18,4.01h3.27c1.27-.78,2.5-1.64,3.79-2.67,.14-.04,.28-.12,.41-.25,.1-.11,.27-.28,.49-.48l.67-.6s.01-.01,.02,0m2.29-3.98c-1.16,.96-2.34,1.94-3.44,2.88-.45,.39-.89,.76-1.32,1.1h2.48c1.17-1.03,2.98-2.53,4.76-3.99h-2.48Zm9.78-10c-.51,.95-1.05,1.93-1.6,2.96-2.14-.07-4.33-.2-6.59-.38-.39-.04-.53-.04-.6-.04-.42,0-.8,.34-.8,.77s.33,.74,.72,.82c1.21,.12,4.08,.29,5.89,.36-.19,.15-.4,.32-.62,.5h0c-1.5,1.2-3.81,3.06-6.17,5h2.48c1.36-1.12,2.7-2.21,3.73-3.04-.56,1.05-1.1,2.07-1.6,3.03h0c-.81,1.53-1.54,2.91-2.11,3.99h0c-.66,1.26-1.11,2.12-1.24,2.37-.27,.45-.51,1.03-.66,1.64h0c-.29,1.15-.28,2.44,.36,3.3,.2,.29,.44,.52,.73,.7h6.01c2-.61,3.96-1.61,5.57-2.59,.7-.43,1.42-.9,2.14-1.41h0c1.1-.77,2.19-1.61,3.23-2.49,.06-.04,.12-.09,.2-.17l.59-.52c.06-.05,.1-.11,.14-.17,.22-.2,.48-.43,.77-.67h-1s1,0,1,0c1.25-1.08,3.05-2.57,4.78-3.98h-2.46c-1.46,1.21-2.93,2.45-4.24,3.58l-.05,.03c-.12,.1-.25,.22-.4,.36h0c-1.09,.95-3.09,2.57-5.47,4.02h0c-2.12,1.29-4.55,2.44-6.89,2.84-2,.33-3.01,.06-3.37-.46-.32-.44-.29-1.18-.07-1.96,.04-.15,.09-.29,.13-.42h-1.06s1.06,0,1.06,0c.18-.52,.37-.89,.42-.97l.11-.21,.39-.77,1.05-2.06,.33-.65c.5-.98,1.08-2.11,1.72-3.34h-.66s.66,0,.66,0c.8-1.54,1.69-3.24,2.62-5h-1.17s1.17,0,1.17,0c.02-.04,.05-.09,.07-.13l.26-.29c1.08,.03,2.14,.06,3.19,.06,1.53,0,3.02-.03,4.44-.1,.43,0,.77-.37,.77-.8s-.37-.8-.81-.8c-1.99,.08-4.07,.1-6.19,.08,.73-.84,1.6-1.87,2.52-3.02h-3.4Zm8.99-11.93c-1.27,3.52-3.9,7.21-6.07,9.98,2.31-4.15,4.53-7.91,6.07-9.98m1.46,.57c.23-.55,.67-1.95,.39-2.59-.09-.24-.28-.44-.51-.56-1.08-.47-1.83,.61-2.39,1.33-1.71,2.2-4.37,6.62-7.94,13.17h3.4s.07-.09,.11-.14c2.28-2.88,5.39-7.18,6.94-11.21m20.81-.28c-1.27,3.51-3.9,7.21-6.07,9.98,2.31-4.15,4.53-7.91,6.07-9.98m1.46,.57c.23-.55,.67-1.95,.39-2.59-.1-.24-.28-.44-.51-.56-1.08-.47-1.83,.61-2.39,1.33-1.68,2.17-4.29,6.49-7.77,12.87-.57,1.03-1.15,2.12-1.76,3.27-2.14-.07-4.33-.2-6.59-.38-.39-.04-.53-.04-.6-.04-.42,0-.8,.34-.8,.76s.33,.75,.72,.82c1.21,.12,4.08,.29,5.89,.36-.08,.06-.16,.13-.25,.2h0c-1.41,1.12-3.75,3.01-6.17,5h2.46c1.23-1.01,2.43-1.98,3.37-2.74-.5,.95-.99,1.87-1.45,2.74h1.7c.78-1.51,1.64-3.15,2.54-4.84l.15-.16,.11-.12c1.08,.03,2.14,.06,3.19,.06,1.53,0,3.02-.03,4.45-.1,.43-.01,.77-.37,.77-.8s-.37-.8-.81-.8c-1.99,.08-4.07,.1-6.18,.08,.76-.87,1.66-1.95,2.63-3.16,.04-.05,.09-.11,.13-.16h0c2.27-2.88,5.29-7.09,6.81-11.05m10.24,16.05c.15-.21,.19-.49,.08-.77-.19-.37-.63-.59-1.03-.43-.89,.33-1.75,.74-2.56,1.2h3.51Zm-27.83,8.99h1.75l.18-.35c.54-1.06,1.18-2.29,1.87-3.63h-1.7c-.8,1.52-1.53,2.89-2.11,3.99m33.83-1.35l.65-1.2c.28-.5,.54-.98,.79-1.44h0c.92-1.67,1.6-2.93,1.93-3.5,.16-.26,.39-.55,.63-.72,.25-.18,.36-.15,.41-.12,.34,.42-.35,1.93-.49,2.21-.29,.58-.81,1.31-1.49,2.13h1.14s-1.14,0-1.14,0c-.67,.81-1.5,1.71-2.44,2.63m-10.81,14.4c.5-.3,.99-.59,1.47-.87-1.47,2.4-3.6,5.45-6.01,8.23-1.6,1.83-3.09,3.25-4.48,4.28-1.52,1.13-2.77,1.65-3.69,1.65-1.99,0-.83-2.38-.2-3.18,2.35-2.96,6.81-6.46,12.9-10.11m9.34-5.04h-3.52l-.26,.13s.04-.08,.07-.13h0c.64-1.17,1.41-2.55,2.21-4h0c.21-.38,.42-.76,.64-1.14,.37-.34,.74-.62,1.05-.9,.76-.64,1.5-1.31,2.19-1.98h-2.25s2.25,0,2.25,0c1.43-1.39,2.67-2.79,3.53-3.97h0c.38-.52,.68-1,.89-1.42,.44-.87,1.05-2.52,.55-3.59h-.97s.97,0,.97,0c-.15-.31-.38-.57-.75-.75-1.01-.49-2,.04-2.64,.75h0c-.22,.24-.4,.51-.53,.76-.33,.62-1.22,2.21-2.33,4.24h0c-.12,.21-.24,.44-.37,.66-.59,1.04-1.21,2.17-1.84,3.32h0c-.33,.61-.67,1.23-1.01,1.84-.88,.7-1.92,1.46-3.05,2.18h1.48s-1.48,0-1.48,0c-1.73,1.11-3.66,2.12-5.54,2.61-2,.54-3.56,.38-4.68-.37-.54-.35-.86-.82-.97-1.47-.04-.25-.04-.51-.03-.78h-.68s.68,0,.68,0c.09-1.28,.77-2.75,1.51-4.01,.34-.58,.7-1.11,1.01-1.55l.4-.54c.51-.64,1.06-1.28,1.64-1.88h0c1.95-2.02,4.29-3.75,6.92-4.71,.14-.07,.26-.17,.34-.29h-3.51c-2.46,1.4-4.53,3.31-5.92,5h0c-.21,.25-.4,.5-.58,.74-.67,.88-1.45,1.99-2.09,3.18-.02,.02-.05,.04-.08,.07h0c-.91,.82-2.89,2.48-5.31,4.02h0c-2.23,1.41-4.85,2.71-7.38,3.13-2,.33-3,.06-3.37-.46-.32-.44-.29-1.18-.07-1.96,.07-.26,.16-.51,.24-.71h0c.14-.36,.27-.62,.31-.68l.11-.21,.39-.76,1.2-2.36h-1.75c-.75,1.42-1.26,2.39-1.39,2.67-.23,.38-.43,.85-.58,1.35h0c-.37,1.22-.42,2.66,.28,3.6,.1,.15,.22,.28,.35,.4h0c.66,.62,1.63,.89,2.79,.89,1.47,0,3.01-.35,4.5-.89h-5.37s5.37,0,5.37,0c1.68-.61,3.3-1.45,4.67-2.29,.85-.52,1.72-1.1,2.58-1.71h0c.45-.33,.89-.66,1.33-1-.07,.33-.11,.66-.13,.99h0c-.01,.34,0,.68,.05,1,.15,1.11,.73,1.99,1.67,2.59,.24,.16,.5,.3,.77,.42h3.48s-3.48,0-3.48,0c1.51,.66,3.41,.64,5.21,.17,.2-.05,.4-.11,.6-.18h0c1.98-.62,3.97-1.73,5.71-2.88-.59,1.06-1.13,2.05-1.58,2.88-.31,.57-.58,1.07-.8,1.47-1.16,.65-2.47,1.38-3.82,2.22-.17,.1-.34,.2-.51,.31h0c-2.55,1.53-4.83,3.08-6.75,4.54-2.59,1.96-4.64,3.87-6.06,5.63-1.63,2.01-2.25,5.68,1.4,5.76,3.18,.07,6.94-3.66,9.4-6.47,2.83-3.22,5.24-6.8,6.79-9.45,.27-.47,.52-.91,.74-1.31,1.76-.97,2.83-1.51,4.49-2.35,.02-.01,.26-.13,.68-.34m9.98-6.51c.78-.58-.08-1.92-.97-1.25-1.67,1.34-3.42,2.6-5.24,3.76h0c-1.41,.9-2.86,1.74-4.34,2.51l-.63,.32-.3,.15-.22,.11-.78,.39-1.01,.52h3.52c.56-.29,1.45-.76,2.56-1.41,1.15-.67,2.53-1.54,4.05-2.59,1.07-.74,2.21-1.58,3.37-2.51m16.27-10.49h1.33c-.22-.34-.64-.44-1-.29-.15,.07-.26,.18-.33,.29m8.96,0h7c-.34-.17-.73-.3-1.16-.39-1.97-.4-3.94-.19-5.84,.39m67.59,8.99s-.03,.03-.05,.04l-.29,.26c-1.46,1.33-3.08,2.62-4.72,3.71h0c-2.53,1.67-5.12,2.84-7.29,2.84-.56,0-2.36-.19-2.41-.99-.04-.36,.22-.97,.94-1.84h-3.52c-2.33,1.72-4.97,3.26-7.29,3.26s-3.92-1.26-4.21-3.26c0-.04,0-.08-.02-.12-.09-.83,.11-1.75,.67-2.77,.2-.36,.44-.74,.72-1.12,.7-.95,1.67-1.95,2.89-2.96,.41-.36,.83-.7,1.25-1.02h0c3.64-2.8,7.46-4.34,10.6-4.34,.79,0,1.53,.09,2.22,.26l.07,.04,.2,.07c.74,.29,1.51,.82,1.7,1.65,.11,.48,.06,1.23-.51,2.31h0c-.55,1.02-1.57,2.33-3.4,3.99h3.23c1.78-1.28,3.63-2.46,5.62-3.66,.15-.07,.26-.19,.33-.33,.12-.24,.12-.54-.03-.78-.22-.38-.76-.51-1.21-.19l-.39,.23c-.4,.24-.81,.48-1.21,.73h0c-.59,.37-1.18,.74-1.76,1.13,.23-.38,.42-.76,.57-1.12h-.7s.7,0,.7,0c.38-.94,.5-1.83,.31-2.66-.22-.98-.91-1.79-1.76-2.33h-2.74s2.74,0,2.74,0c-.42-.27-.88-.47-1.35-.58-.84-.24-1.71-.35-2.63-.35-1.56,0-3.2,.3-4.91,.93h0c-.44,.16-.87,.34-1.32,.54-2.27,.98-4.48,2.43-6.66,4.27-.08,.07-.16,.14-.23,.2h0c-1.17,1.02-2.15,2.04-3.03,3.12-.35,.3-.68,.58-1.02,.86h0c-2.21,1.8-4.12,3.03-6,4.02h0c-1.21,.63-2.42,1.17-3.67,1.69-1.91,.77-7.69,2.24-10.36,.72-.94-.51-1.4-1.38-1.52-2.4-.15-1.24,.18-2.7,.75-4.01,.47-1.08,1.09-2.06,1.73-2.75l.75,.33c1.52,.64,3.99,1.45,6.94,1.59,2.64,.12,6.11-.82,7.98-3.15h-2.41c-1.47,1.01-3.56,1.65-5.52,1.56-2.7-.13-4.94-.87-6.36-1.45l-.23-.1h.02s.86-.86,.86-.86c2.62-2.44,4.71-3.58,6.59-4.15h0c.72-.23,1.4-.37,2.08-.46,1.18-.17,2.24,.03,3.03,.46h0c1.31,.72,1.89,2.09,1.09,3.44-.34,.57-.88,1.11-1.55,1.56h2.41c.18-.23,.35-.47,.5-.72,1.02-1.73,.82-3.2-.02-4.28h0c-1.17-1.51-3.57-2.29-5.69-2.01-1.83,.24-3.72,.91-5.59,2.01h0c-1.33,.79-2.64,1.79-3.91,3.01-.44,.44-.9,.85-1.31,1.27-.45-.23-.7-.4-.7-.4-.39-.27-.86-.14-1.13,.22-.14,.28-.14,.62,.07,.91h0c.06,.08,.13,.15,.23,.22l.22,.15,.2,.12c-.67,.82-1.36,1.96-1.87,3.2l-.3,.27s-.02,.02-.03,.03h0c-1.5,1.31-3.08,2.54-4.71,3.67-.17,.12-.34,.24-.5,.34h.92s-.92,0-.92,0c-3.41,2.31-5.64,3.03-6.68,2.61-.36-.15-.53-.36-.59-.64-.11-.44-.02-1.1,.31-1.97h-.61s.61,0,.61,0c.3-.81,.82-1.8,1.57-2.96,.24-.37,.48-.72,.72-1.05h0c.34-.48,.67-.91,.94-1.27l.57-.72,.24-.32c.35-.52,.75-1.08,1.09-1.67h0c.61-1.05,1.02-2.2,.58-3.43-.25-.71-.77-1.23-1.49-1.58h-7c-3.12,.96-6.04,2.95-8.47,5h0c-.33,.28-.65,.55-.96,.83,.17-.29,.32-.56,.47-.83h0c.12-.22,.24-.44,.35-.65,1.32-2.57,1.35-3.64,1.03-4.28-.02-.03-.03-.05-.05-.07h-1.33c-.14,.23-.16,.5-.05,.76,.23,.46-.61,2.19-1.8,4.23h0c-.75,1.28-1.63,2.68-2.48,3.98h0c-1.1,1.68-2.15,3.18-2.75,3.99l-.02,.03-2.75,3.74,.36,.26,.94,.68,.49-.68v-.02s.55-.75,.55-.75c.45-.62,1.07-1.45,1.72-2.3,.23-.3,.48-.6,.73-.93h0c1.01-1.24,2.23-2.63,3.59-4.02h-.92s.92,0,.92,0c.22-.22,.44-.45,.67-.67,1.15-1.12,2.44-2.26,3.82-3.31h0c3.49-2.63,7.58-4.61,11.44-3.82,.95,.18,1.36,.55,1.47,.92,.2,.57-.06,1.42-.5,2.25-.13,.23-.26,.45-.38,.64h0c-.28,.44-.51,.72-.51,.72,0,0-1.28,1.5-2.45,3.27h0c-.04,.06-.08,.12-.12,.18-.92,1.43-1.58,2.71-1.92,3.83h0c-.27,.88-.35,1.66-.19,2.33,.2,.79,.7,1.35,1.42,1.67h1.75s-1.75,0-1.75,0c.04,.02,.08,.04,.12,.05,.38,.17,.81,.24,1.28,.24,.52,0,1.1-.1,1.73-.29h.02c1.58-.47,3.49-1.51,5.69-3.03,.45-.32,.89-.64,1.31-.96h0c.75-.56,1.44-1.11,2.03-1.59-.07,.54-.1,1.07-.05,1.58h.84s-.84,0-.84,0c.12,1.53,.81,2.91,2.38,3.77,.15,.08,.31,.16,.47,.23h0c2.35,.99,5.67,.65,8.4,0h-4.46s4.46,0,4.46,0c1.08-.26,2.07-.56,2.86-.86,2.43-.99,4.39-1.96,6.28-3.14h-2.31s2.31,0,2.31,0c.8-.5,1.58-1.04,2.39-1.64-.12,.56-.15,1.11-.1,1.65h0s0,.04,0,.06c.26,1.78,1.2,3.13,2.54,3.94h7.01c.76-.33,1.54-.75,2.37-1.26,.75-.46,1.49-.97,2.23-1.52-.05,.25-.07,.5-.05,.74,.08,1.05,.78,1.69,1.65,2.04h5.12c2.48-.73,5.02-2.31,7.22-3.99h0c1.36-1.04,2.6-2.11,3.63-3.06,.28-.26,.65-.59,1.1-.96h-2.39Zm-13.27,3.4c.89-.93,2.22-2.03,3.89-3.27,.06-.04,.12-.09,.18-.13h-3.23c-.4,.37-.85,.75-1.33,1.16-1.01,.84-2.24,1.88-3.57,2.86h3.52c.16-.2,.33-.4,.54-.61m26.59-12.23l.15-.16h-2.59c-1.4,1.12-3.72,2.99-6.15,5h0c-1.61,1.33-3.26,2.72-4.71,3.99h2.39c1.25-1.09,3.05-2.57,4.78-3.99h-1.09s1.09,0,1.09,0c1.24-1.01,2.44-1.98,3.37-2.74-.5,.95-.99,1.87-1.45,2.74h1.7c.78-1.51,1.64-3.15,2.54-4.84m9.79-16.79c-1.27,3.51-3.9,7.21-6.07,9.98,2.31-4.15,4.53-7.91,6.07-9.98m1.46,.57c.23-.55,.67-1.95,.39-2.59-.1-.24-.28-.44-.51-.56-1.08-.47-1.83,.61-2.39,1.33-1.68,2.17-4.29,6.49-7.77,12.87-.56,1.03-1.15,2.12-1.76,3.27-2.14-.07-4.34-.2-6.59-.38-.39-.04-.53-.04-.6-.04-.41,0-.8,.34-.8,.76s.32,.75,.72,.82c1.21,.12,4.08,.29,5.89,.36-.08,.07-.17,.13-.26,.2h2.59l.12-.12c1.08,.03,2.14,.06,3.19,.06,1.53,0,3.02-.03,4.45-.1,.43-.01,.77-.37,.77-.8s-.37-.8-.81-.8c-1.99,.08-4.07,.1-6.19,.08,.76-.87,1.67-1.95,2.63-3.16,.04-.05,.09-.11,.13-.16h0c2.27-2.88,5.29-7.09,6.81-11.05m45.83,9.41c2.31-4.15,4.53-7.91,6.07-9.98-1.27,3.51-3.9,7.21-6.07,9.98m-24.36,6.81c0-.05,.01-.11,.02-.16,.15-1.05,.42-1.68,.68-1.91,.25-.23,.45-.26,.6-.22l.08,.05c.16,.48-.6,1.46-.91,1.79-.1,.1-.19,.19-.29,.28h0c-.06,.05-.12,.11-.18,.16m14.3,8.83h1.75l.18-.35c.54-1.06,1.18-2.29,1.87-3.63h0c.78-1.51,1.64-3.15,2.54-4.84l.15-.16,.12-.12c1.08,.03,2.14,.06,3.19,.06,1.53,0,3.02-.03,4.45-.1,.43-.01,.77-.37,.77-.8s-.37-.8-.81-.8c-1.99,.08-4.07,.1-6.19,.08,.76-.87,1.66-1.95,2.63-3.16,.04-.05,.09-.11,.13-.16h0c2.27-2.88,5.29-7.09,6.81-11.05,.23-.55,.67-1.95,.39-2.59-.1-.24-.28-.44-.51-.56-1.08-.47-1.83,.61-2.39,1.33-1.68,2.17-4.29,6.49-7.77,12.87-.56,1.03-1.15,2.12-1.76,3.27-2.14-.07-4.33-.2-6.59-.38-.39-.04-.53-.04-.61-.04-.41,0-.8,.34-.8,.76s.33,.75,.72,.82c1.21,.12,4.08,.29,5.89,.36,.22-.02,.41-.03,.56-.03-.09,.07-.18,.15-.27,.23h0c-2.57,2.08-6.34,3.68-9.96,5h2.79s-2.79,0-2.79,0c-3.26,1.2-6.39,2.18-8.41,3.1-.02-1.03-.12-2.04-.24-3.1-.09-.89-.19-1.8-.23-2.78,.73-.56,1.71-1.33,2.37-2.22h-1.28s1.28,0,1.28,0c.55-.75,.88-1.59,.65-2.47-.38-1.53-2.27-1.56-3.29-.64-.66,.6-1.06,1.67-1.23,3.12h.92s-.92,0-.92,0c-.05,.46-.08,.95-.09,1.47-1.39,1.15-2.85,2.39-4.17,3.52h.75s-.75,0-.75,0c-.54,.47-1.06,.92-1.55,1.34l-2.07,1.82-.6,.54-.17,.15c-.05,.04-.1,.09-.14,.14h0c-.24,.3-.25,.75,.03,1.03,.3,.33,.77,.31,1.13,.04,0,0,.46-.4,1.21-1.06h0c1.09-.95,2.8-2.42,4.62-3.99h0c.59-.5,1.19-1.01,1.78-1.51,.04,.5,.09,1.01,.13,1.51h1.08s-1.08,0-1.08,0c.12,1.22,.23,2.46,.24,3.76-.16,.07-.32,.14-.47,.21h0c-2.81,1.28-4.69,2.61-5.45,4.02h1.95c.76-.82,2.1-1.68,3.93-2.49-.06,.85-.18,1.7-.35,2.49h0c-.28,1.26-.73,2.34-1.41,2.92-.92,.82-3.83,.69-2.8-1.98,.12-.3,.33-.62,.63-.94h-1.95c-.05,.1-.1,.2-.14,.3-.47,1.13-.46,2.18-.05,3.02,.13,.26,.3,.49,.5,.68h4.96c.91-.86,1.52-2.22,1.88-4h-1.01s1.01,0,1.01,0c.17-.84,.28-1.77,.35-2.79,0-.12,.02-.42,.02-.44,.48-.27,1.02-.53,1.59-.78h0c2.9-1.25,6.9-2.31,10.79-3.99h0c1.75-.75,3.48-1.63,5.08-2.7-.49,.93-.97,1.84-1.43,2.7-.8,1.51-1.53,2.88-2.11,3.99m23.78-8.99h-2.01l-.24,.32c-.65,.87-1.52,2.07-2.45,3.41-.3,.43-.59,.85-.86,1.26h0c-.96,1.42-1.78,2.72-2.5,3.92-.03,.02-.05,.04-.08,.07h0c-.91,.82-2.89,2.48-5.31,4.02h0c-2.23,1.41-4.85,2.71-7.38,3.13-2,.33-3.01,.06-3.37-.46-.32-.44-.29-1.18-.07-1.96,.07-.26,.16-.51,.24-.71h0c.14-.36,.27-.62,.31-.68l.11-.21,.39-.76,1.2-2.36h-1.75c-.75,1.42-1.26,2.39-1.39,2.67-.23,.38-.43,.85-.58,1.35h0c-.37,1.22-.42,2.66,.28,3.6,.1,.15,.22,.28,.34,.4h0c.66,.62,1.63,.89,2.79,.89,1.47,0,3.01-.35,4.5-.89h-5.37s5.37,0,5.37,0c1.69-.61,3.3-1.45,4.67-2.29,.85-.52,1.71-1.1,2.57-1.71h0c.32-.23,.64-.47,.96-.71-.08,.24-.15,.48-.21,.71h1.65c.02-.08,.05-.15,.07-.23,.4-1.08,1.09-2.4,1.91-3.78h0c.79-1.33,1.69-2.71,2.58-3.99h-1.08s1.08,0,1.08,0c.07-.1,.14-.2,.2-.3,1.59-2.3,3.03-4.19,3.43-4.7m.11-.14c.56-.75-.53-1.88-1.38-.84l-.74,.99h2.01c.06-.09,.1-.14,.11-.14m15.89,.02c.61-1.08-.68-1.85-1.4-.82l-.39,.49-.36,.46-.96,1.22c-.91,1.14-2.03,2.53-3.08,3.78h0c-.18,.22-.37,.43-.54,.64-1.18,1.29-2.31,2.39-3.37,3.35h2.87c.53-.79,1.11-1.54,1.7-2.28,.46-.57,.92-1.14,1.39-1.71h0c1.36-1.66,2.72-3.32,4.06-5h0s.07-.09,.1-.13m28.25-11.03c.17-.43,.95-2.8,.22-4.52-.3-.69-.94-1.19-1.73-1.32-.64-.13-1.76-.02-2.89,1.18-.53,.6-4.26,4.93-9.19,10.82h0c-1.31,1.57-2.71,3.25-4.16,5h0c-.9,1.1-1.82,2.21-2.74,3.34l-1.35,1.66-3.25,3.99-.11,.13c-1.52,1.49-3.08,2.8-4.57,3.87h0c-1.17,.84-2.29,1.52-3.34,2.03-1.21,.6-2.27,.91-3.16,1.01-1.81,.16-2.43-.65-1.46-3.03h0c.04-.09,.07-.17,.11-.27,.57-1.29,1.3-2.55,2.13-3.75h-2.87c-2.03,1.83-3.82,3.11-5.33,4.01h2.9c.69-.5,1.39-1.04,2.08-1.61l-.35,.7c-.15,.32-.27,.62-.36,.91h.88s-.88,0-.88,0c-.2,.61-.3,1.14-.34,1.6-.11,1.14,.27,1.92,.89,2.4h0c.57,.45,1.37,.64,2.2,.62,.92-.03,1.89-.22,2.96-.62h.02c.41-.15,.84-.34,1.29-.55,.88-.43,1.81-.98,2.77-1.62-.57,.73-1.12,1.46-1.66,2.17h0c-1.06,1.39-2.06,2.74-2.98,4h1.4s-1.4,0-1.4,0c-2,2.77-3.58,5.14-4.41,6.74-.16,.27-.84,1.47-1.43,2.84-.88,2.01-1.29,3.67-.82,4.7,.25,.55,.94,1.05,1.84,1.05,1.49,0,3.23-1.01,4.96-2.65,2.27-2.2,4.35-5.36,5.73-8.72,.56-1.32,.99-2.65,1.3-3.97h-1.65c-1.15,4.61-3.71,8.88-6.5,11.54-1.76,1.7-3.2,2.38-4.19,2.13-.16-.42-.03-1.59,.76-3.45,.65-1.43,1.4-2.73,1.4-2.73,.88-1.71,2.68-4.36,4.97-7.48h0c.94-1.27,1.95-2.62,3.02-4h-1.72s1.72,0,1.72,0c.38-.5,.77-1,1.16-1.5,.02,.5,0,1.01-.02,1.51h1.05s-1.05,0-1.05,0c-.07,1.34-.29,2.68-.61,4h1.65c.32-1.35,.51-2.69,.57-4,.03-.54,.03-1.08,.01-1.61,.35,.21,.76,.43,1.23,.61,4.04,1.6,9.16,.09,13-1.63,.44-.21,.95-.47,1.51-.78-.9,1.15-1.78,2.29-2.62,3.41h2.01c.38-.5,.77-1,1.16-1.51,.02,.5,0,1.01-.02,1.51h1.05s-1.05,0-1.05,0c-.07,1.34-.29,2.68-.61,4h1.65c.31-1.35,.51-2.69,.57-4h0c.03-.54,.03-1.08,.01-1.61,.35,.21,.76,.43,1.23,.61,4.04,1.6,9.16,.09,13-1.63,.7-.33,1.56-.79,2.51-1.37h0c1.07-.66,2.26-1.48,3.46-2.47,.74-.74-.21-1.85-1.04-1.22-2.1,1.78-4.22,2.95-5.58,3.6-.07,.03-.13,.06-.2,.09h1.11s-1.11,0-1.11,0c-3.38,1.54-8.04,2.88-11.52,1.54-.68-.26-1.3-.65-1.84-1.13,.11-.14,.22-.28,.33-.42h-4.87c-3.38,1.54-8.03,2.89-11.52,1.54-.68-.26-1.3-.65-1.84-1.13,.11-.14,.23-.28,.34-.42h-1.88s1.88,0,1.88,0c.69-.87,1.38-1.77,2.07-2.63,.83-.4,1.8-.87,2.79-1.37h0c1.46-.75,2.96-1.57,4.12-2.34,.85-.55,1.66-1.1,2.45-1.65h-2.85c-.16,.11-.32,.21-.48,.32-1.02,.68-2.34,1.41-3.66,2.09l1.94-2.41,.53-.66c1.21-1.48,2.41-2.93,3.57-4.34,1.46-1.76,2.86-3.44,4.16-5h0c4.48-5.34,7.8-9.18,8.32-9.75,.4-.43,.97-.77,1.41-.7,.28,.04,.49,.21,.58,.41,.37,.82,.12,2.12-.14,2.97l-.04,.24-.09,.15c-.75,2.15-2.12,4.39-4.11,6.69h0c-1.41,1.64-3.14,3.3-5.18,5h.62s-.62,0-.62,0c-1.97,1.64-4.24,3.31-6.8,5h2.85c2.4-1.68,4.53-3.35,6.38-4.99h0c1.04-.92,1.98-1.83,2.83-2.73,.72-.76,1.38-1.51,1.98-2.27h0c1.65-2.08,2.84-4.14,3.54-6.16m18.11-4.52c-.3-.69-.94-1.19-1.73-1.32-.64-.13-1.76-.02-2.89,1.18-.53,.6-4.26,4.93-9.19,10.82h0c-1.32,1.57-2.72,3.25-4.16,5h0c-.9,1.1-1.82,2.21-2.74,3.34l-1.34,1.66-3.21,3.99-.32,.4c-2.07,1.74-4.15,2.89-5.49,3.53-.07,.03-.13,.06-.2,.09h4.87c.64-.8,1.29-1.64,1.96-2.47,.06-.06,.1-.12,.14-.18,.83-.39,1.79-.86,2.77-1.37h0c1.46-.75,2.96-1.57,4.13-2.34,.85-.55,1.66-1.1,2.45-1.65h-2.85c-.16,.11-.32,.21-.48,.32-1.02,.68-2.34,1.41-3.66,2.09l1.94-2.41,.53-.66c1.21-1.48,2.41-2.93,3.57-4.34h0c1.46-1.76,2.86-3.44,4.16-5h0c4.48-5.34,7.8-9.18,8.32-9.75,.4-.43,.97-.77,1.41-.7,.28,.04,.49,.21,.58,.41,.37,.82,.12,2.12-.14,2.97l-.04,.24-.09,.15c-.75,2.15-2.12,4.39-4.11,6.69h0c-1.41,1.64-3.14,3.3-5.18,5h.62s-.62,0-.62,0c-1.97,1.64-4.24,3.31-6.8,5h2.85c2.4-1.68,4.53-3.35,6.38-4.99h0c1.04-.92,1.98-1.83,2.83-2.73,.72-.76,1.38-1.51,1.98-2.27h0c1.65-2.08,2.84-4.14,3.54-6.16,.17-.43,.95-2.8,.22-4.52"/>
  <rect class="cls-4" x="66.48" y="114.29" width="462.32" height="190.94"/>
</svg>