<?xml version="1.0" standalone="no"?>
<!DOCTYPE svg PUBLIC "-//W3C//DTD SVG 20010904//EN"
 "http://www.w3.org/TR/2001/REC-SVG-20010904/DTD/svg10.dtd">
<svg version="1.0" xmlns="http://www.w3.org/2000/svg"
 width="1445.000000pt" height="1022.000000pt" viewBox="0 0 1445.000000 1022.000000"
 preserveAspectRatio="xMidYMid meet">

<g transform="translate(0.000000,1022.000000) scale(0.100000,-0.100000)"
fill="#000000" stroke="none">
<path d="M7001 7543 c22 -65 46 -139 53 -165 l14 -46 -134 -96 c-73 -54 -136
-101 -139 -106 -4 -6 60 -10 169 -10 l175 0 51 -161 c28 -89 54 -158 58 -154
4 3 30 74 57 158 l50 152 179 5 179 5 -138 99 c-75 54 -138 104 -141 110 -2 6
18 81 45 166 28 85 48 156 46 158 -2 2 -62 -39 -134 -92 -72 -53 -137 -96
-144 -96 -7 0 -71 43 -142 95 -72 52 -133 95 -137 95 -4 0 11 -53 33 -117z"/>
<path d="M4860 7238 c-74 -54 -142 -97 -151 -95 -8 2 -73 46 -143 97 -70 51
-129 90 -131 88 -3 -2 18 -73 46 -156 28 -84 49 -158 46 -165 -3 -7 -64 -56
-136 -108 -72 -52 -131 -97 -131 -101 0 -5 78 -8 173 -8 l172 0 53 -160 c30
-88 55 -160 57 -160 3 0 28 72 56 160 l52 160 173 0 c96 0 174 3 174 8 0 4
-61 50 -135 102 -74 52 -134 102 -134 110 -1 8 22 85 49 170 27 85 48 155 47
156 -1 1 -63 -43 -137 -98z"/>
<path d="M9490 7293 c0 -5 23 -76 50 -158 28 -83 48 -155 46 -161 -2 -5 -66
-55 -141 -110 l-137 -99 178 -5 179 -5 50 -157 c27 -87 52 -158 55 -158 3 0
29 72 58 160 l53 160 177 2 177 3 -143 103 c-78 57 -142 104 -142 105 0 1 24
75 54 165 29 89 51 162 47 162 -3 0 -64 -43 -136 -95 -71 -52 -136 -95 -144
-95 -7 0 -68 40 -135 88 -141 103 -146 106 -146 95z"/>
<path d="M2581 6278 c27 -84 49 -160 49 -168 0 -8 -58 -57 -130 -108 -71 -52
-132 -98 -135 -103 -4 -5 63 -9 168 -9 l173 0 56 -167 55 -168 54 165 54 165
178 5 178 5 -140 100 c-77 55 -141 107 -141 115 0 9 22 83 50 165 27 82 48
150 46 152 -2 2 -66 -41 -142 -96 l-138 -100 -30 22 c-94 70 -244 177 -249
177 -3 0 17 -69 44 -152z"/>
<path d="M11405 6209 c30 -89 52 -165 50 -169 -3 -4 -67 -52 -142 -106 l-138
-99 177 -3 177 -2 53 -165 c28 -91 54 -163 56 -160 2 2 28 75 56 162 l52 158
178 5 177 5 -140 100 c-77 55 -141 105 -141 110 0 6 23 78 50 160 28 82 49
153 48 157 -2 5 -65 -37 -141 -93 -92 -67 -142 -97 -150 -91 -72 54 -266 192
-270 192 -3 0 19 -73 48 -161z"/>
<path d="M5205 6300 c-183 -11 -314 -38 -438 -90 -165 -71 -332 -215 -390
-338 -30 -63 -32 -73 -32 -182 0 -144 22 -207 99 -286 77 -79 149 -91 209 -36
33 32 34 41 3 35 -19 -4 -35 5 -68 35 l-43 41 0 88 c0 81 3 95 34 158 24 49
58 93 111 146 125 126 287 192 566 233 275 41 579 38 1124 -8 162 -14 311 -27
330 -28 33 -3 28 -6 -70 -54 -265 -129 -622 -424 -1014 -840 -93 -98 -181
-191 -195 -206 l-26 -26 -170 18 c-369 41 -798 53 -1055 30 -338 -31 -655
-112 -920 -236 -386 -182 -659 -524 -677 -849 -11 -198 44 -327 186 -439 153
-120 340 -176 585 -176 233 0 413 40 613 135 341 162 670 454 1298 1153 161
179 204 222 225 222 30 0 282 -39 287 -44 2 -2 -35 -55 -83 -117 -286 -377
-472 -687 -519 -869 -66 -255 82 -386 369 -325 131 28 243 94 377 222 l66 63
1 -64 c1 -78 26 -141 72 -180 42 -35 69 -46 140 -56 157 -22 313 47 523 234
l93 84 -4 -55 c-9 -112 29 -202 102 -240 43 -23 138 -21 209 5 81 29 199 117
341 252 66 63 117 111 114 105 -3 -5 -38 -68 -78 -140 -40 -71 -101 -178 -137
-236 l-66 -106 -121 -53 c-191 -84 -510 -240 -641 -315 -370 -209 -570 -408
-570 -566 0 -61 41 -120 104 -151 42 -21 59 -23 191 -22 127 1 156 4 235 28
343 104 713 422 1013 871 48 72 98 151 111 176 23 43 32 50 185 127 89 44 213
112 276 150 l115 69 16 -52 c32 -104 97 -158 212 -174 212 -30 462 87 733 342
71 67 99 87 130 93 82 15 158 60 253 149 98 91 774 890 806 952 1 2 35 -4 75
-13 41 -8 139 -18 218 -22 l144 -7 -112 -84 c-470 -351 -812 -747 -874 -1011
-60 -252 40 -403 254 -388 125 9 244 76 396 220 l91 88 7 -61 c16 -158 94
-236 245 -246 152 -10 285 43 437 175 89 78 253 250 286 300 34 51 17 141 -24
130 -8 -2 -51 -44 -96 -95 -129 -144 -287 -280 -395 -338 -63 -35 -146 -44
-171 -19 -70 69 88 364 459 859 131 175 381 482 529 649 39 44 53 67 41 63
-11 -3 -58 -16 -105 -27 -231 -58 -326 -121 -558 -369 -245 -263 -420 -486
-524 -669 -46 -82 -74 -114 -218 -255 -170 -167 -247 -227 -313 -245 -75 -21
-87 9 -51 117 48 144 156 324 338 564 123 163 190 241 425 497 215 234 232
260 196 290 -12 10 -43 10 -147 0 -100 -9 -169 -9 -277 -1 -210 16 -196 6
-145 108 103 205 96 403 -16 403 -22 0 -34 -17 -104 -155 -145 -287 -357 -626
-550 -883 -130 -171 -357 -443 -312 -372 105 165 137 221 182 315 77 163 105
260 112 383 7 152 -25 223 -122 268 -40 19 -68 24 -131 24 -112 0 -192 -22
-320 -85 -435 -215 -915 -819 -1009 -1267 -5 -21 -33 -43 -144 -111 -142 -86
-303 -177 -316 -177 -4 0 8 28 27 63 19 34 96 179 172 322 383 723 558 965
833 1153 l83 57 -23 18 c-35 29 -141 19 -235 -20 l-72 -31 -15 23 c-8 12 -31
30 -52 40 -59 28 -221 17 -341 -23 -264 -89 -567 -302 -855 -601 -146 -151
-234 -265 -310 -400 -91 -161 -407 -462 -537 -512 -124 -47 -172 2 -137 140
19 73 44 123 147 297 220 369 400 610 782 1044 422 481 623 666 832 767 135
64 234 86 369 81 123 -5 183 -25 260 -87 22 -17 41 -29 43 -27 9 9 -27 113
-47 138 -31 40 -109 85 -175 103 -219 57 -536 -32 -836 -234 -268 -180 -645
-554 -988 -978 -74 -92 -111 -130 -121 -126 -8 3 -80 21 -160 40 -80 18 -157
37 -172 41 l-27 7 80 100 c314 391 789 907 977 1063 l63 52 87 0 c190 0 292
58 292 165 0 50 -14 71 -56 85 -29 10 -38 9 -52 -4 -59 -52 -221 -83 -498 -92
-206 -8 -522 8 -735 36 -79 10 -214 28 -299 39 -317 41 -663 62 -845 51z
m1970 -268 c-6 -5 -32 -17 -60 -27 -78 -28 -199 -101 -330 -199 -183 -137
-566 -525 -823 -833 l-91 -109 -88 17 c-48 10 -114 21 -145 24 -32 4 -58 12
-58 18 0 23 617 625 745 727 253 201 457 318 637 365 89 23 233 34 213 17z
m1147 -1129 c-59 -60 -150 -164 -202 -232 -340 -446 -504 -646 -649 -791 -153
-153 -277 -240 -340 -240 -48 0 -28 110 50 264 236 469 798 1008 1137 1091
123 29 124 26 4 -92z m1303 87 c59 -49 4 -251 -131 -486 -133 -232 -293 -442
-478 -633 -187 -190 -339 -295 -447 -308 -96 -11 -113 48 -58 211 131 393 705
1108 977 1217 50 20 112 20 137 -1z m-4474 -151 c74 -6 136 -13 138 -15 5 -4
-25 -37 -321 -351 -421 -447 -691 -670 -970 -803 -227 -108 -406 -145 -673
-138 -150 4 -180 8 -252 32 -242 79 -369 274 -319 489 38 163 164 331 335 447
140 94 447 220 656 268 125 29 273 49 455 62 85 6 173 12 195 14 108 8 638 5
756 -5z m1144 -179 c88 -17 168 -33 177 -36 13 -4 -4 -33 -83 -142 -100 -136
-190 -274 -267 -407 -51 -88 -253 -302 -365 -386 -133 -101 -249 -144 -292
-109 -37 31 -11 153 65 299 109 210 555 827 590 817 8 -3 87 -19 175 -36z
m819 -1592 c-351 -473 -672 -718 -940 -718 -76 0 -98 16 -89 64 28 134 175
271 480 446 122 71 607 311 613 305 3 -2 -26 -46 -64 -97z"/>
</g>
</svg>
