<svg width="79" height="79" viewBox="0 0 79 79" fill="none" xmlns="http://www.w3.org/2000/svg">
<g clip-path="url(#clip0_1639_3)">
<rect width="79" height="79" rx="39.5" fill="white"/>
<path d="M26.4802 54.7527C23.6869 54.7527 21.3034 54.1338 19.3297 52.8961C17.356 51.6416 15.8422 49.9355 14.7884 47.7778C13.7514 45.6201 13.2245 43.178 13.2078 40.4516C13.2245 37.675 13.7681 35.2162 14.8386 33.0752C15.9258 30.9175 17.4647 29.2281 19.4551 28.0071C21.4456 26.7694 23.8124 26.1505 26.5555 26.1505C29.6332 26.1505 32.2341 26.9283 34.3584 28.4838C36.4994 30.0226 37.896 32.1302 38.5484 34.8064L32.5268 36.4372C32.0585 34.982 31.2807 33.853 30.1935 33.0501C29.1063 32.2305 27.8685 31.8207 26.4802 31.8207C24.9079 31.8207 23.6116 32.1971 22.5913 32.9498C21.571 33.6857 20.8183 34.706 20.3333 36.0107C19.8482 37.3154 19.6057 38.7957 19.6057 40.4516C19.6057 43.0275 20.1827 45.1099 21.3368 46.6989C22.491 48.2879 24.2054 49.0824 26.4802 49.0824C28.086 49.0824 29.3488 48.7144 30.2688 47.9785C31.2054 47.2425 31.908 46.1804 32.3763 44.7921L38.5484 46.172C37.712 48.9319 36.2485 51.0561 34.1577 52.5448C32.0669 54.0167 29.5077 54.7527 26.4802 54.7527Z" fill="black"/>
<path d="M50.9023 54L41.0671 26.9032H47.1137L53.9381 46.5484L60.7374 26.9032H66.8091L56.974 54H50.9023Z" fill="#1500FF"/>
</g>
<defs>
<clipPath id="clip0_1639_3">
<rect width="79" height="79" rx="39.5" fill="white"/>
</clipPath>
</defs>
</svg>
