<?xml version="1.0" encoding="UTF-8"?>
<svg id="Camada_2" data-name="Camada 2" xmlns="http://www.w3.org/2000/svg" viewBox="0 0 250 32.1">
  <g id="Layer_1" data-name="Layer 1">
    <g>
      <g>
        <polygon points="0 5.1 1.86 5.1 1.86 2.05 3.96 2.05 3.96 10.68 2.38 10.68 2.38 12.53 7.69 12.53 7.69 10.68 6.12 10.68 6.12 2.05 8.23 2.05 8.23 5.1 10.08 5.1 10.08 .19 0 .19 0 5.1"/>
        <polygon points="22.68 2.05 24.09 2.05 24.09 5.12 19.21 5.12 19.21 2.05 20.63 2.05 20.63 .19 15.7 .19 15.7 2.05 17.05 2.05 17.05 10.68 15.7 10.68 15.7 12.53 20.63 12.53 20.63 10.68 19.21 10.68 19.21 6.98 24.09 6.98 24.09 10.68 22.68 10.68 22.68 12.53 27.62 12.53 27.62 10.68 26.26 10.68 26.26 2.05 27.62 2.05 27.62 .19 22.68 .19 22.68 2.05"/>
        <polygon points="33.5 2.05 35.06 2.05 35.06 10.68 33.5 10.68 33.5 12.53 43.81 12.53 43.81 8.49 41.97 8.49 41.97 10.68 37.22 10.68 37.22 7.12 41.66 7.12 41.66 5.25 37.22 5.25 37.22 2.05 41.97 2.05 41.97 4.15 43.81 4.15 43.81 .19 33.5 .19 33.5 2.05"/>
        <polygon points="59.37 2.05 60.88 2.05 60.88 10.68 59.37 10.68 59.37 12.53 64.59 12.53 64.59 10.68 63.05 10.68 63.05 7.1 66.93 7.1 66.93 5.24 63.05 5.24 63.05 2.05 67.19 2.05 67.19 4.15 69.03 4.15 69.03 .19 59.37 .19 59.37 2.05"/>
        <polygon points="74.58 2.05 76.13 2.05 76.13 10.68 74.58 10.68 74.58 12.53 84.88 12.53 84.88 8.49 83.03 8.49 83.03 10.68 78.29 10.68 78.29 7.12 82.74 7.12 82.74 5.25 78.29 5.25 78.29 2.05 83.03 2.05 83.03 4.15 84.88 4.15 84.88 .19 74.58 .19 74.58 2.05"/>
        <polygon points="90.91 4.15 92.75 4.15 92.75 2.05 97.49 2.05 97.49 5.25 93.04 5.25 93.04 7.12 97.49 7.12 97.49 10.68 92.75 10.68 92.75 8.49 90.91 8.49 90.91 12.53 101.21 12.53 101.21 10.68 99.65 10.68 99.65 2.05 101.21 2.05 101.21 .19 90.91 .19 90.91 4.15"/>
        <polygon points="106.93 5.1 108.77 5.1 108.77 2.05 110.89 2.05 110.89 10.68 109.32 10.68 109.32 12.53 114.62 12.53 114.62 10.68 113.05 10.68 113.05 2.05 115.16 2.05 115.16 5.1 117 5.1 117 .19 106.93 .19 106.93 5.1"/>
        <polygon points="122.68 2.05 124 2.05 124 10.68 122.68 10.68 122.68 12.53 127.47 12.53 127.47 10.68 126.16 10.68 126.16 2.05 127.47 2.05 127.47 .19 122.68 .19 122.68 2.05"/>
        <polygon points="140.69 2.05 142.36 2.05 142.36 9.06 137.42 .19 133.04 .19 133.04 2.05 134.75 2.05 134.75 10.68 133.04 10.68 133.04 12.53 138.33 12.53 138.33 10.68 136.6 10.68 136.6 2.88 142.03 12.66 144.21 12.66 144.21 2.05 145.97 2.05 145.97 .19 140.69 .19 140.69 2.05"/>
        <path d="M159.87,6.39v1.85h2.14c-.37,1.51-1.84,2.54-3.66,2.54-2.45,0-4.23-1.87-4.23-4.45s1.67-4.4,4.05-4.4c1.66,0,3.22,.99,3.88,2.45l.05,.1h1.83V.19h-1.88V1.32c-1.21-.92-2.43-1.32-4.03-1.32-4.31,0-6.24,3.17-6.24,6.32,0,2.97,1.72,6.43,6.55,6.43,1.97,0,3.66-.62,4.76-1.75,1.05-1.08,1.57-2.57,1.52-4.44v-.17h-4.75Z"/>
        <path d="M187.67,6.61c1.54-.45,2.39-1.55,2.39-3.12,0-1.23-.52-3.3-3.99-3.3h-5.73v1.86h1.65V10.68h-1.65v1.86h5.36v-1.86h-1.57v-3.75h1.43l2.72,5.61h2.89v-1.86h-1.53l-1.97-4.06Zm.19-3.12c0,1.04-.62,1.57-1.86,1.57h-1.86V2.05h2.02c1.08,0,1.7,.52,1.7,1.44Z"/>
        <path d="M202.97,0c-3.69,0-6.37,2.67-6.37,6.37s2.68,6.36,6.37,6.36,6.37-2.68,6.37-6.36-2.68-6.37-6.37-6.37Zm0,10.78c-2.26,0-4.03-1.94-4.03-4.41s1.77-4.43,4.03-4.43,4.04,1.95,4.04,4.43-1.77,4.41-4.04,4.41Z"/>
        <path d="M222.43,0c-3.7,0-6.38,2.67-6.38,6.37s2.68,6.36,6.38,6.36,6.37-2.68,6.37-6.36-2.68-6.37-6.37-6.37Zm0,10.78c-2.27,0-4.05-1.94-4.05-4.41s1.78-4.43,4.05-4.43,4.03,1.95,4.03,4.43-1.77,4.41-4.03,4.41Z"/>
        <polygon points="250 2.05 250 .19 245.51 .19 242.48 8.07 239.48 .19 235.05 .19 235.05 2.05 236.51 2.05 236.51 10.68 235.05 10.68 235.05 12.53 239.64 12.53 239.64 10.68 238.34 10.68 238.34 2.75 242.12 12.66 242.73 12.66 246.54 2.74 246.54 10.68 245.25 10.68 245.25 12.53 250 12.53 250 10.68 248.55 10.68 248.55 2.05 250 2.05"/>
      </g>
      <g>
        <path d="M46.53,22.6v3.05h3.4v-3.05h.87v6.92h-.87v-3.12h-3.4v3.12h-.87v-6.92h.87Z"/>
        <path d="M55.46,24.13c.73,0,1.33,.24,1.78,.71s.68,1.16,.68,2.05-.23,1.56-.68,2.04-1.04,.71-1.78,.71-1.33-.24-1.78-.71-.68-1.16-.68-2.04,.23-1.57,.68-2.05,1.04-.71,1.78-.71Zm1.57,2.75c0-.63-.13-1.12-.4-1.47-.26-.36-.65-.53-1.16-.53s-.9,.18-1.17,.53-.41,.85-.41,1.47,.13,1.12,.38,1.47c.26,.36,.64,.53,1.15,.53s.9-.18,1.18-.53c.28-.36,.42-.85,.42-1.47Z"/>
        <path d="M60.96,25.27c.34-.76,.93-1.14,1.77-1.14,.46,0,.84,.11,1.14,.33,.31,.22,.53,.53,.67,.93,.33-.84,.94-1.26,1.84-1.26,.63,0,1.12,.21,1.46,.62,.34,.41,.52,.97,.52,1.68v3.09h-.86v-3.09c0-.51-.12-.89-.36-1.14-.24-.26-.58-.38-1.03-.38s-.79,.18-1.04,.55c-.25,.37-.37,.87-.37,1.52v2.55h-.86v-3.09c0-.51-.12-.89-.36-1.14-.24-.26-.58-.38-1.02-.38s-.8,.18-1.07,.54c-.27,.36-.42,.86-.43,1.5v2.58h-.87v-5.26h.75l.1,1.01Z"/>
        <path d="M72.78,28.93c.73,0,1.14-.32,1.24-.96h.89c-.08,.53-.31,.94-.7,1.23s-.86,.43-1.44,.43c-.7,0-1.28-.25-1.72-.75-.44-.5-.66-1.17-.66-2.01s.22-1.5,.67-2c.44-.5,1.03-.75,1.77-.75s1.29,.29,1.65,.86c.36,.57,.49,1.27,.38,2.09h-3.6c0,.54,.13,.99,.4,1.34,.26,.35,.63,.52,1.11,.52Zm.64-3.98c-.17-.09-.37-.13-.62-.13-.45,0-.8,.15-1.06,.46-.26,.3-.41,.68-.46,1.14h2.81c0-.73-.22-1.22-.67-1.46Z"/>
        <path d="M82.24,24.13c.73,0,1.33,.24,1.78,.71s.68,1.16,.68,2.05-.23,1.56-.68,2.04-1.04,.71-1.78,.71-1.33-.24-1.78-.71-.68-1.16-.68-2.04,.23-1.57,.68-2.05,1.04-.71,1.78-.71Zm1.57,2.75c0-.63-.13-1.12-.4-1.47-.26-.36-.65-.53-1.16-.53s-.9,.18-1.17,.53-.41,.85-.41,1.47,.13,1.12,.38,1.47,.64,.53,1.15,.53,.9-.18,1.18-.53c.28-.36,.42-.85,.42-1.47Z"/>
        <path d="M89.45,22.76c-.24-.1-.43-.14-.57-.14-.26,0-.46,.06-.6,.19-.15,.12-.22,.34-.22,.66v.79h1.09v.59h-1.09v4.66h-.86v-4.66h-.87v-.59h.87v-.8c0-.52,.14-.9,.43-1.15,.29-.25,.62-.37,.99-.37s.7,.05,.99,.14l-.15,.68Z"/>
        <path d="M94.88,23.02c-.18,0-.31-.05-.41-.15s-.15-.23-.15-.4,.05-.3,.15-.4,.24-.15,.41-.15,.32,.05,.42,.15,.16,.23,.16,.4-.05,.3-.16,.4-.25,.15-.42,.15Zm-.43,1.23h.87v5.27h-.87v-5.27Z"/>
        <path d="M99.07,25.27c.34-.76,.93-1.14,1.77-1.14,.62,0,1.11,.21,1.46,.62,.35,.41,.52,.97,.52,1.68v3.09h-.86v-3.09c0-.51-.12-.89-.36-1.14-.24-.26-.58-.38-1.02-.38s-.8,.18-1.07,.54c-.27,.36-.42,.86-.43,1.5v2.58h-.87v-5.26h.75l.1,1.01Z"/>
        <path d="M108.86,25.04v-3.01h.86v7.49h-.7l-.11-.88c-.17,.33-.39,.58-.67,.75-.28,.17-.58,.25-.91,.25-.67,0-1.23-.26-1.68-.77-.45-.51-.68-1.18-.68-2.01s.22-1.49,.67-1.99c.44-.5,1-.75,1.68-.75s1.19,.3,1.54,.91Zm-1.5-.14c-.42,0-.78,.18-1.07,.54s-.43,.84-.43,1.44,.15,1.08,.44,1.45c.29,.36,.64,.54,1.06,.54s.76-.14,1.05-.41c.29-.28,.44-.64,.46-1.11v-.86c0-.49-.14-.88-.43-1.17-.29-.29-.64-.43-1.07-.43Z"/>
        <path d="M114.31,28.93c.73,0,1.14-.32,1.24-.96h.89c-.08,.53-.31,.94-.7,1.23s-.86,.43-1.44,.43c-.7,0-1.28-.25-1.72-.75-.44-.5-.66-1.17-.66-2.01s.22-1.5,.67-2c.44-.5,1.03-.75,1.77-.75s1.29,.29,1.65,.86c.36,.57,.49,1.27,.38,2.09h-3.6c0,.54,.13,.99,.4,1.34,.26,.35,.63,.52,1.11,.52Zm.64-3.98c-.17-.09-.37-.13-.62-.13-.45,0-.8,.15-1.06,.46-.26,.3-.41,.68-.46,1.14h2.81c0-.73-.22-1.22-.67-1.46Z"/>
        <path d="M119.53,25.06c.34-.62,.86-.93,1.55-.93s1.26,.25,1.72,.76,.69,1.17,.69,2-.23,1.49-.69,2c-.46,.5-1.03,.75-1.71,.75s-1.17-.25-1.5-.76v3.22h-.87v-7.84h.71l.1,.8Zm1.51,3.81c.41,0,.77-.18,1.08-.53,.31-.35,.47-.83,.47-1.45s-.15-1.1-.45-1.46c-.3-.36-.66-.54-1.08-.54s-.77,.13-1.04,.4-.42,.63-.43,1.08v1c0,.46,.14,.83,.42,1.09,.28,.26,.62,.4,1.03,.4Z"/>
        <path d="M127.61,28.93c.73,0,1.14-.32,1.24-.96h.89c-.08,.53-.31,.94-.7,1.23s-.86,.43-1.44,.43c-.7,0-1.28-.25-1.72-.75-.44-.5-.66-1.17-.66-2.01s.22-1.5,.67-2c.44-.5,1.03-.75,1.77-.75s1.29,.29,1.65,.86c.36,.57,.49,1.27,.38,2.09h-3.6c0,.54,.13,.99,.4,1.34,.26,.35,.63,.52,1.11,.52Zm.64-3.98c-.17-.09-.37-.13-.62-.13-.45,0-.8,.15-1.06,.46-.26,.3-.41,.68-.46,1.14h2.81c0-.73-.22-1.22-.67-1.46Z"/>
        <path d="M132.85,25.27c.34-.76,.93-1.14,1.77-1.14,.62,0,1.11,.21,1.46,.62,.35,.41,.52,.97,.52,1.68v3.09h-.86v-3.09c0-.51-.12-.89-.36-1.14-.24-.26-.58-.38-1.02-.38s-.8,.18-1.07,.54c-.27,.36-.42,.86-.43,1.5v2.58h-.87v-5.26h.75l.1,1.01Z"/>
        <path d="M142.64,25.04v-3.01h.86v7.49h-.7l-.11-.88c-.17,.33-.39,.58-.67,.75-.28,.17-.58,.25-.91,.25-.67,0-1.23-.26-1.68-.77-.45-.51-.68-1.18-.68-2.01s.22-1.49,.67-1.99c.44-.5,1-.75,1.68-.75s1.19,.3,1.54,.91Zm-1.5-.14c-.42,0-.78,.18-1.07,.54s-.43,.84-.43,1.44,.15,1.08,.44,1.45c.29,.36,.64,.54,1.06,.54s.76-.14,1.05-.41c.29-.28,.44-.64,.46-1.11v-.86c0-.49-.14-.88-.43-1.17-.29-.29-.64-.43-1.07-.43Z"/>
        <path d="M148.1,28.93c.73,0,1.14-.32,1.24-.96h.89c-.08,.53-.31,.94-.7,1.23s-.86,.43-1.44,.43c-.7,0-1.28-.25-1.72-.75-.44-.5-.66-1.17-.66-2.01s.22-1.5,.67-2c.44-.5,1.03-.75,1.77-.75s1.29,.29,1.65,.86c.36,.57,.49,1.27,.38,2.09h-3.6c0,.54,.13,.99,.4,1.34,.26,.35,.63,.52,1.11,.52Zm.64-3.98c-.17-.09-.37-.13-.62-.13-.45,0-.8,.15-1.06,.46-.26,.3-.41,.68-.46,1.14h2.81c0-.73-.22-1.22-.67-1.46Z"/>
        <path d="M153.33,25.27c.34-.76,.93-1.14,1.77-1.14,.62,0,1.11,.21,1.46,.62,.35,.41,.52,.97,.52,1.68v3.09h-.86v-3.09c0-.51-.12-.89-.36-1.14-.24-.26-.58-.38-1.02-.38s-.8,.18-1.07,.54c-.27,.36-.42,.86-.43,1.5v2.58h-.87v-5.26h.75l.1,1.01Z"/>
        <path d="M162.43,29.36c-.63,.29-1.21,.36-1.73,.19-.37-.12-.64-.36-.79-.74-.08-.18-.12-.4-.12-.66v-3.23h-.85v-.66h.85v-1.46h.86v1.46h1.65v.66h-1.65v3.22c0,.54,.25,.8,.75,.8,.27,0,.58-.07,.91-.2l.12,.62Z"/>
        <path d="M168.4,25.04c.35-.61,.87-.91,1.54-.91s1.24,.25,1.68,.75c.45,.5,.67,1.17,.67,1.99s-.23,1.49-.68,2c-.46,.51-1.01,.76-1.66,.76-.35,0-.67-.09-.95-.26-.28-.18-.5-.44-.67-.78l-.2,.92h-.6v-7.49h.87v3.01Zm1.48-.14c-.42,0-.77,.13-1.04,.4s-.43,.64-.44,1.12v.86c0,.48,.14,.87,.43,1.16s.64,.43,1.05,.43,.77-.18,1.07-.54,.45-.85,.45-1.45-.15-1.08-.45-1.44c-.3-.36-.65-.54-1.07-.54Z"/>
        <path d="M176.65,24.99c-.83,0-1.26,.65-1.29,1.96v2.56h-.87v-5.27h.87v1.01c.26-.73,.73-1.1,1.4-1.1,.21,0,.41,.03,.6,.1l-.04,.85c-.22-.07-.44-.11-.67-.11Z"/>
        <path d="M182.5,26.11c0-.48-.1-.82-.3-1.02-.2-.21-.49-.31-.86-.31s-.68,.08-.91,.23c-.23,.15-.35,.39-.35,.71h-.96c0-.81,.43-1.31,1.3-1.5,.26-.06,.55-.09,.86-.09,.65,0,1.16,.17,1.53,.5,.37,.33,.55,.83,.55,1.51v3.39h-.75l-.09-.88c-.32,.67-.91,1-1.75,1-.56,0-1.02-.16-1.36-.47s-.51-.71-.51-1.18,.19-.84,.57-1.1c.38-.26,.85-.4,1.41-.4s1.1,.1,1.62,.29v-.67Zm0,1.22c-.52-.15-.98-.22-1.36-.22s-.7,.07-.95,.21c-.24,.14-.36,.36-.36,.66,0,.66,.37,.99,1.12,.99,.42,0,.79-.15,1.09-.46,.3-.3,.46-.7,.46-1.18Z"/>
        <path d="M186.79,25.27c.34-.76,.93-1.14,1.77-1.14,.62,0,1.11,.21,1.46,.62,.35,.41,.52,.97,.52,1.68v3.09h-.86v-3.09c0-.51-.12-.89-.36-1.14-.24-.26-.58-.38-1.02-.38s-.8,.18-1.07,.54c-.27,.36-.42,.86-.43,1.5v2.58h-.87v-5.26h.75l.1,1.01Z"/>
        <path d="M196.58,25.04v-3.01h.86v7.49h-.7l-.11-.88c-.17,.33-.39,.58-.67,.75-.28,.17-.58,.25-.91,.25-.67,0-1.23-.26-1.68-.77-.45-.51-.68-1.18-.68-2.01s.22-1.49,.67-1.99c.44-.5,1-.75,1.68-.75s1.19,.3,1.54,.91Zm-1.5-.14c-.42,0-.78,.18-1.07,.54s-.43,.84-.43,1.44,.15,1.08,.44,1.45c.29,.36,.64,.54,1.06,.54s.76-.14,1.05-.41c.29-.28,.44-.64,.46-1.11v-.86c0-.49-.14-.88-.43-1.17-.29-.29-.64-.43-1.07-.43Z"/>
        <path d="M200.51,24.51c.37-.26,.87-.38,1.5-.38s1.12,.13,1.48,.4c.36,.26,.54,.6,.56,1h-.85c-.07-.48-.47-.71-1.21-.71-.36,0-.64,.08-.83,.24s-.29,.33-.29,.52,.07,.34,.22,.47c.15,.13,.38,.24,.7,.34l1.06,.35c.45,.14,.79,.32,1.03,.53,.24,.22,.36,.51,.36,.89s-.19,.72-.58,1.02c-.39,.3-.93,.46-1.63,.46s-1.24-.16-1.63-.47-.59-.71-.62-1.2h.84c.01,.33,.15,.58,.4,.74s.57,.25,.95,.25,.7-.08,.95-.24,.37-.35,.37-.58-.07-.39-.22-.51c-.15-.12-.38-.22-.71-.31l-1.02-.34c-.92-.27-1.38-.75-1.38-1.43,0-.43,.19-.78,.56-1.03Z"/>
      </g>
    </g>
  </g>
</svg>