<?xml version="1.0" encoding="UTF-8"?>
<svg id="Camada_2" data-name="Camada 2" xmlns="http://www.w3.org/2000/svg" viewBox="0 0 743.61 743.62">
  <g id="Camada_1-2" data-name="Camada 1">
    <path d="M372.45,0c205.94,.66,372.33,168.23,371.15,373.8-1.18,206.03-169,371.52-375,369.8C164.18,741.9,.03,575.92,0,370.88-.03,166.78,168.11-.65,372.45,0Zm-1.47,721.69c195.24,0,350.57-154.55,350.69-348.93,.12-194.93-154.66-350.56-348.92-350.84C180.77,21.65,25.12,176.27,21.79,364.11c-3.49,196.47,156.33,360.29,349.2,357.58Z"/>
    <path d="M241.39,243.84h239.97v51.88c-36.54,0-72.67,0-108.8,0-33.14,0-53.23,34.71-36.72,64,4.72,8.37,11,15.86,17.15,24.59,18.64-27.86,41.42-47.37,76.27-47.72,53.29-.54,93.3,49,82.22,105.6-3.62,18.5-12.84,37.02-23.57,52.75-14.52,21.29-32.13,40.7-49.92,59.49-31.66,33.42-53.24,71.94-63.96,116.65-.79,3.29-2.22,6.43-4.67,9.49-5-27.12-2.29-53.86,4.49-80.25,8.16-31.79,25.39-58.51,44.81-84.8,16.14-21.85,29.07-46.51,40.39-71.32,8.59-18.82,6.64-38.87-11.24-53.33-13.13-10.62-27.56-10.5-41.73-1.5-15.95,10.14-21.91,28.41-17.28,51.99,.88,4.5,1.8,8.99,2.67,13.31-.77,1.15-1.18,2.52-2.05,2.94-50.1,24.32-40.38,24.06-69.52-17.67-9.88-14.14-19.19-28.68-28.94-43.31-8.44,7.07-18.03,20.6-24.28,19.2-13.86-3.09-26.05-13.67-40.74-22.26,20.05-30.22,39.56-59.61,61.05-92h-45.6v-57.73Z"/>
    <path d="M242.11,155.24c14.16-8.11,28.07-17.18,43.01-24,4.86-2.22,15.17-.91,18.3,2.77,42.95,50.52,104.79,43.47,154.6,11.2,2.62-1.7,5.49-3.03,9.58-5.26-16.96,45.09-61.48,74.95-112.3,76.75-53.97,1.91-93.76-19.28-113.18-61.46Z"/>
    <path d="M358.52,137.17c-19.83,.38-35.62-14.8-35.63-34.27,0-18.68,14.9-33.3,34.34-33.67,19.28-.37,34.95,13.88,35.63,32.37,.71,19.29-14.64,35.19-34.34,35.57Z"/>
  </g>
</svg>