<svg width="58" height="8" viewBox="0 0 58 8" fill="none" xmlns="http://www.w3.org/2000/svg">
<path d="M2.6451 7.47422C2.08843 7.47422 1.61343 7.35089 1.2201 7.10422C0.826764 6.85422 0.525098 6.51422 0.315098 6.08422C0.108431 5.65422 0.003431 5.16755 9.76846e-05 4.62422C0.003431 4.07089 0.111764 3.58089 0.325098 3.15422C0.541764 2.72422 0.848431 2.38755 1.2451 2.14422C1.64176 1.89755 2.11343 1.77422 2.6601 1.77422C3.27343 1.77422 3.79176 1.92922 4.2151 2.23922C4.64176 2.54589 4.9201 2.96589 5.0501 3.49922L3.8501 3.82422C3.75676 3.53422 3.60176 3.30922 3.3851 3.14922C3.16843 2.98589 2.92176 2.90422 2.6451 2.90422C2.33176 2.90422 2.07343 2.97922 1.8701 3.12922C1.66676 3.27589 1.51676 3.47922 1.4201 3.73922C1.32343 3.99922 1.2751 4.29422 1.2751 4.62422C1.2751 5.13755 1.3901 5.55255 1.6201 5.86922C1.8501 6.18589 2.19176 6.34422 2.6451 6.34422C2.9651 6.34422 3.21676 6.27089 3.4001 6.12422C3.58676 5.97755 3.72676 5.76589 3.8201 5.48922L5.0501 5.76422C4.88343 6.31422 4.59176 6.73755 4.1751 7.03422C3.75843 7.32755 3.24843 7.47422 2.6451 7.47422ZM6.05205 7.32422V1.92422H7.11705V3.23922L6.98705 3.06922C7.05372 2.88922 7.14205 2.72589 7.25205 2.57922C7.36538 2.42922 7.50038 2.30589 7.65705 2.20922C7.79038 2.11922 7.93705 2.04922 8.09705 1.99922C8.26038 1.94589 8.42705 1.91422 8.59705 1.90422C8.76705 1.89089 8.93205 1.89755 9.09205 1.92422V3.04922C8.93205 3.00255 8.74705 2.98755 8.53705 3.00422C8.33038 3.02089 8.14372 3.07922 7.97705 3.17922C7.81038 3.26922 7.67372 3.38422 7.56705 3.52422C7.46372 3.66422 7.38705 3.82422 7.33705 4.00422C7.28705 4.18089 7.26205 4.37255 7.26205 4.57922V7.32422H6.05205ZM12.4035 7.47422C11.8569 7.47422 11.3769 7.35589 10.9635 7.11922C10.5502 6.88255 10.2269 6.55422 9.99354 6.13422C9.76354 5.71422 9.64854 5.23089 9.64854 4.68422C9.64854 4.09422 9.76187 3.58255 9.98854 3.14922C10.2152 2.71255 10.5302 2.37422 10.9335 2.13422C11.3369 1.89422 11.8035 1.77422 12.3335 1.77422C12.8935 1.77422 13.3685 1.90589 13.7585 2.16922C14.1519 2.42922 14.4435 2.79755 14.6335 3.27422C14.8235 3.75089 14.8952 4.31255 14.8485 4.95922H13.6535V4.51922C13.6502 3.93255 13.5469 3.50422 13.3435 3.23422C13.1402 2.96422 12.8202 2.82922 12.3835 2.82922C11.8902 2.82922 11.5235 2.98255 11.2835 3.28922C11.0435 3.59255 10.9235 4.03755 10.9235 4.62422C10.9235 5.17089 11.0435 5.59422 11.2835 5.89422C11.5235 6.19422 11.8735 6.34422 12.3335 6.34422C12.6302 6.34422 12.8852 6.27922 13.0985 6.14922C13.3152 6.01589 13.4819 5.82422 13.5985 5.57422L14.7885 5.93422C14.5819 6.42089 14.2619 6.79922 13.8285 7.06922C13.3985 7.33922 12.9235 7.47422 12.4035 7.47422ZM10.5435 4.95922V4.04922H14.2585V4.95922H10.5435ZM17.3765 7.47422C16.9865 7.47422 16.6565 7.40089 16.3865 7.25422C16.1165 7.10422 15.9115 6.90589 15.7715 6.65922C15.6348 6.41255 15.5665 6.14089 15.5665 5.84422C15.5665 5.58422 15.6098 5.35089 15.6965 5.14422C15.7832 4.93422 15.9165 4.75422 16.0965 4.60422C16.2765 4.45089 16.5098 4.32589 16.7965 4.22922C17.0132 4.15922 17.2665 4.09589 17.5565 4.03922C17.8498 3.98255 18.1665 3.93089 18.5065 3.88422C18.8498 3.83422 19.2082 3.78089 19.5815 3.72422L19.1515 3.96922C19.1548 3.59589 19.0715 3.32089 18.9015 3.14422C18.7315 2.96755 18.4448 2.87922 18.0415 2.87922C17.7982 2.87922 17.5632 2.93589 17.3365 3.04922C17.1098 3.16255 16.9515 3.35755 16.8615 3.63422L15.7615 3.28922C15.8948 2.83255 16.1482 2.46589 16.5215 2.18922C16.8982 1.91255 17.4048 1.77422 18.0415 1.77422C18.5215 1.77422 18.9432 1.85255 19.3065 2.00922C19.6732 2.16589 19.9448 2.42255 20.1215 2.77922C20.2182 2.96922 20.2765 3.16422 20.2965 3.36422C20.3165 3.56089 20.3265 3.77589 20.3265 4.00922V7.32422H19.2715V6.15422L19.4465 6.34422C19.2032 6.73422 18.9182 7.02089 18.5915 7.20422C18.2682 7.38422 17.8632 7.47422 17.3765 7.47422ZM17.6165 6.51422C17.8898 6.51422 18.1232 6.46589 18.3165 6.36922C18.5098 6.27255 18.6632 6.15422 18.7765 6.01422C18.8932 5.87422 18.9715 5.74255 19.0115 5.61922C19.0748 5.46589 19.1098 5.29089 19.1165 5.09422C19.1265 4.89422 19.1315 4.73255 19.1315 4.60922L19.5015 4.71922C19.1382 4.77589 18.8265 4.82589 18.5665 4.86922C18.3065 4.91255 18.0832 4.95422 17.8965 4.99422C17.7098 5.03089 17.5448 5.07255 17.4015 5.11922C17.2615 5.16922 17.1432 5.22755 17.0465 5.29422C16.9498 5.36089 16.8748 5.43755 16.8215 5.52422C16.7715 5.61089 16.7465 5.71255 16.7465 5.82922C16.7465 5.96255 16.7798 6.08089 16.8465 6.18422C16.9132 6.28422 17.0098 6.36422 17.1365 6.42422C17.2665 6.48422 17.4265 6.51422 17.6165 6.51422ZM24.7932 7.32422C24.4366 7.39089 24.0866 7.41922 23.7432 7.40922C23.4032 7.40255 23.0982 7.34089 22.8282 7.22422C22.5582 7.10422 22.3532 6.91589 22.2132 6.65922C22.0899 6.42589 22.0249 6.18755 22.0182 5.94422C22.0116 5.70089 22.0082 5.42589 22.0082 5.11922V0.424218H23.2082V5.04922C23.2082 5.26589 23.2099 5.45589 23.2132 5.61922C23.2199 5.78255 23.2549 5.91589 23.3182 6.01922C23.4382 6.21922 23.6299 6.33089 23.8932 6.35422C24.1566 6.37755 24.4566 6.36422 24.7932 6.31422V7.32422ZM21.0282 2.86922V1.92422H24.7932V2.86922H21.0282ZM26.0544 1.10422V-0.000781417H27.2594V1.10422H26.0544ZM26.0544 7.32422V1.92422H27.2594V7.32422H26.0544ZM30.2171 7.32422L28.2571 1.92422H29.4621L30.8221 5.83922L32.1771 1.92422H33.3871L31.4271 7.32422H30.2171ZM36.5442 7.47422C35.9975 7.47422 35.5175 7.35589 35.1042 7.11922C34.6908 6.88255 34.3675 6.55422 34.1342 6.13422C33.9042 5.71422 33.7892 5.23089 33.7892 4.68422C33.7892 4.09422 33.9025 3.58255 34.1292 3.14922C34.3558 2.71255 34.6708 2.37422 35.0742 2.13422C35.4775 1.89422 35.9442 1.77422 36.4742 1.77422C37.0342 1.77422 37.5092 1.90589 37.8992 2.16922C38.2925 2.42922 38.5842 2.79755 38.7742 3.27422C38.9642 3.75089 39.0358 4.31255 38.9892 4.95922H37.7942V4.51922C37.7908 3.93255 37.6875 3.50422 37.4842 3.23422C37.2808 2.96422 36.9608 2.82922 36.5242 2.82922C36.0308 2.82922 35.6642 2.98255 35.4242 3.28922C35.1842 3.59255 35.0642 4.03755 35.0642 4.62422C35.0642 5.17089 35.1842 5.59422 35.4242 5.89422C35.6642 6.19422 36.0142 6.34422 36.4742 6.34422C36.7708 6.34422 37.0258 6.27922 37.2392 6.14922C37.4558 6.01589 37.6225 5.82422 37.7392 5.57422L38.9292 5.93422C38.7225 6.42089 38.4025 6.79922 37.9692 7.06922C37.5392 7.33922 37.0642 7.47422 36.5442 7.47422ZM34.6842 4.95922V4.04922H38.3992V4.95922H34.6842Z" fill="black"/>
<path d="M43.5667 7.32422L41.6067 1.92422H42.8117L44.1717 5.83922L45.5267 1.92422H46.7367L44.7767 7.32422H43.5667ZM48.8413 7.47422C48.4513 7.47422 48.1213 7.40089 47.8513 7.25422C47.5813 7.10422 47.3763 6.90589 47.2363 6.65922C47.0997 6.41255 47.0313 6.14089 47.0313 5.84422C47.0313 5.58422 47.0747 5.35089 47.1613 5.14422C47.248 4.93422 47.3813 4.75422 47.5613 4.60422C47.7413 4.45089 47.9747 4.32589 48.2613 4.22922C48.478 4.15922 48.7313 4.09589 49.0213 4.03922C49.3147 3.98255 49.6313 3.93089 49.9713 3.88422C50.3147 3.83422 50.673 3.78089 51.0463 3.72422L50.6163 3.96922C50.6197 3.59589 50.5363 3.32089 50.3663 3.14422C50.1963 2.96755 49.9097 2.87922 49.5063 2.87922C49.263 2.87922 49.028 2.93589 48.8013 3.04922C48.5747 3.16255 48.4163 3.35755 48.3263 3.63422L47.2263 3.28922C47.3597 2.83255 47.613 2.46589 47.9863 2.18922C48.363 1.91255 48.8697 1.77422 49.5063 1.77422C49.9863 1.77422 50.408 1.85255 50.7713 2.00922C51.138 2.16589 51.4097 2.42255 51.5863 2.77922C51.683 2.96922 51.7413 3.16422 51.7613 3.36422C51.7813 3.56089 51.7913 3.77589 51.7913 4.00922V7.32422H50.7363V6.15422L50.9113 6.34422C50.668 6.73422 50.383 7.02089 50.0563 7.20422C49.733 7.38422 49.328 7.47422 48.8413 7.47422ZM49.0813 6.51422C49.3547 6.51422 49.588 6.46589 49.7813 6.36922C49.9747 6.27255 50.128 6.15422 50.2413 6.01422C50.358 5.87422 50.4363 5.74255 50.4763 5.61922C50.5397 5.46589 50.5747 5.29089 50.5813 5.09422C50.5913 4.89422 50.5963 4.73255 50.5963 4.60922L50.9663 4.71922C50.603 4.77589 50.2913 4.82589 50.0313 4.86922C49.7713 4.91255 49.548 4.95422 49.3613 4.99422C49.1747 5.03089 49.0097 5.07255 48.8663 5.11922C48.7263 5.16922 48.608 5.22755 48.5113 5.29422C48.4147 5.36089 48.3397 5.43755 48.2863 5.52422C48.2363 5.61089 48.2113 5.71255 48.2113 5.82922C48.2113 5.96255 48.2447 6.08089 48.3113 6.18422C48.378 6.28422 48.4747 6.36422 48.6013 6.42422C48.7313 6.48422 48.8913 6.51422 49.0813 6.51422ZM52.5931 7.32422V7.15922L55.4531 2.97922H52.8831V1.92422H57.3281V2.09422L54.4781 6.26922H57.2081V7.32422H52.5931Z" fill="#1500FF"/>
</svg>
